<svg width="270" height="195" viewBox="0 0 270 195" fill="none" xmlns="http://www.w3.org/2000/svg">
<g clip-path="url(#clip0_664_3406)">
<path d="M172.057 146.186V193.192H53.8604C40.3934 193.192 29.4365 182.648 29.4365 169.689C29.4365 156.729 40.3934 146.186 53.8604 146.186H172.057Z" fill="#F2F2F2"/>
<path d="M174.961 192.83C174.961 193.31 174.769 193.77 174.429 194.109C174.089 194.448 173.627 194.638 173.146 194.638H51.7551C45.1621 194.638 38.8392 192.029 34.1772 187.384C29.5153 182.739 26.8962 176.439 26.8962 169.869C26.8962 163.3 29.5153 157 34.1772 152.355C38.8392 147.71 45.1621 145.101 51.7551 145.101H173.146C173.628 145.101 174.089 145.291 174.429 145.63C174.77 145.969 174.961 146.429 174.961 146.909C174.961 147.388 174.77 147.848 174.429 148.187C174.089 148.526 173.628 148.716 173.146 148.716H51.7551C46.1246 148.716 40.7247 150.945 36.7433 154.912C32.762 158.879 30.5253 164.259 30.5253 169.869C30.5253 175.48 32.762 180.86 36.7433 184.827C40.7247 188.794 46.1246 191.022 51.7551 191.022H173.146C173.627 191.023 174.089 191.213 174.429 191.552C174.769 191.891 174.961 192.351 174.961 192.83Z" fill="#C74635"/>
<path d="M172.058 157.033H45.0414C44.9451 157.033 44.8528 156.995 44.7848 156.927C44.7167 156.86 44.6785 156.768 44.6785 156.672C44.6785 156.576 44.7167 156.484 44.7848 156.416C44.8528 156.348 44.9451 156.31 45.0414 156.31H172.058C172.154 156.31 172.246 156.348 172.314 156.416C172.382 156.484 172.42 156.576 172.42 156.672C172.42 156.768 172.382 156.86 172.314 156.927C172.246 156.995 172.154 157.033 172.058 157.033Z" fill="#CCCCCC"/>
<path d="M172.058 165.711H45.0414C44.9451 165.711 44.8528 165.673 44.7848 165.606C44.7167 165.538 44.6785 165.446 44.6785 165.35C44.6785 165.254 44.7167 165.162 44.7848 165.094C44.8528 165.026 44.9451 164.988 45.0414 164.988H172.058C172.154 164.988 172.246 165.026 172.314 165.094C172.382 165.162 172.42 165.254 172.42 165.35C172.42 165.446 172.382 165.538 172.314 165.606C172.246 165.673 172.154 165.711 172.058 165.711Z" fill="#CCCCCC"/>
<path d="M172.058 174.389H45.0414C44.9451 174.389 44.8528 174.351 44.7848 174.283C44.7167 174.215 44.6785 174.124 44.6785 174.028C44.6785 173.932 44.7167 173.84 44.7848 173.772C44.8528 173.704 44.9451 173.666 45.0414 173.666H172.058C172.154 173.666 172.246 173.704 172.314 173.772C172.382 173.84 172.42 173.932 172.42 174.028C172.42 174.124 172.382 174.215 172.314 174.283C172.246 174.351 172.154 174.389 172.058 174.389Z" fill="#CCCCCC"/>
<path d="M172.058 183.067H45.0414C44.9451 183.067 44.8528 183.029 44.7848 182.962C44.7167 182.894 44.6785 182.802 44.6785 182.706C44.6785 182.61 44.7167 182.518 44.7848 182.45C44.8528 182.382 44.9451 182.344 45.0414 182.344H172.058C172.154 182.344 172.246 182.382 172.314 182.45C172.382 182.518 172.42 182.61 172.42 182.706C172.42 182.802 172.382 182.894 172.314 182.962C172.246 183.029 172.154 183.067 172.058 183.067Z" fill="#CCCCCC"/>
<path d="M263.407 155.034L233.806 191.637L141.769 117.746C131.282 109.327 129.39 94.2672 137.55 84.176C145.711 74.0847 160.882 72.7241 171.369 81.143L263.407 155.034Z" fill="#F2F2F2"/>
<path d="M236.295 193.171C235.993 193.544 235.554 193.782 235.076 193.833C234.597 193.885 234.118 193.745 233.743 193.444L139.219 117.556C134.085 113.435 130.804 107.45 130.099 100.919C129.394 94.3872 131.322 87.8442 135.458 82.7289C139.595 77.6137 145.602 74.3453 152.157 73.6427C158.712 72.94 165.279 74.8608 170.412 78.9824L264.937 154.87C265.123 155.019 265.277 155.203 265.392 155.411C265.506 155.62 265.578 155.848 265.604 156.085C265.629 156.321 265.608 156.56 265.541 156.787C265.474 157.015 265.362 157.228 265.213 157.413C265.063 157.598 264.878 157.752 264.669 157.865C264.46 157.979 264.23 158.051 263.993 158.076C263.756 158.101 263.517 158.08 263.288 158.013C263.059 157.946 262.846 157.835 262.66 157.686L168.136 81.798C165.965 80.0539 163.47 78.7529 160.795 77.9695C158.119 77.1861 155.315 76.9355 152.542 77.2321C149.77 77.5288 147.083 78.3668 144.635 79.6983C142.188 81.0299 140.027 82.8288 138.278 84.9924C136.528 87.156 135.223 89.6419 134.438 92.308C133.653 94.9741 133.403 97.7683 133.701 100.531C134 103.293 134.842 105.97 136.18 108.408C137.517 110.847 139.323 112.998 141.495 114.741L236.02 190.628C236.395 190.929 236.634 191.366 236.686 191.843C236.737 192.32 236.597 192.797 236.295 193.171Z" fill="#CCCCCC"/>
<path d="M256.576 163.481L157.671 84.0767C157.634 84.047 157.603 84.0102 157.58 83.9685C157.557 83.9268 157.543 83.8811 157.538 83.8339C157.533 83.7866 157.537 83.7389 157.55 83.6933C157.564 83.6478 157.586 83.6053 157.616 83.5683C157.646 83.5313 157.683 83.5006 157.725 83.4778C157.766 83.4551 157.812 83.4407 157.86 83.4357C157.907 83.4306 157.955 83.4349 158.001 83.4482C158.046 83.4616 158.089 83.4838 158.126 83.5136L257.031 162.918C257.068 162.947 257.099 162.984 257.122 163.026C257.145 163.068 257.16 163.113 257.165 163.161C257.17 163.208 257.166 163.256 257.152 163.301C257.139 163.347 257.116 163.389 257.086 163.426C257.057 163.463 257.02 163.494 256.978 163.517C256.936 163.54 256.89 163.554 256.842 163.559C256.795 163.564 256.747 163.56 256.701 163.546C256.656 163.533 256.613 163.511 256.576 163.481Z" fill="#CCCCCC"/>
<path d="M251.111 170.238L152.206 90.8343C152.131 90.7741 152.084 90.6867 152.073 90.5914C152.063 90.4962 152.091 90.4007 152.152 90.3261C152.212 90.2515 152.3 90.2038 152.395 90.1935C152.491 90.1832 152.587 90.2111 152.662 90.2711L251.566 169.675C251.604 169.705 251.635 169.742 251.657 169.783C251.68 169.825 251.695 169.871 251.7 169.918C251.705 169.965 251.701 170.013 251.687 170.059C251.674 170.104 251.652 170.147 251.622 170.184C251.592 170.221 251.555 170.252 251.513 170.274C251.471 170.297 251.425 170.312 251.378 170.317C251.33 170.322 251.282 170.317 251.237 170.304C251.191 170.29 251.148 170.268 251.111 170.238Z" fill="#CCCCCC"/>
<path d="M245.647 176.996L146.742 97.5919C146.667 97.5317 146.619 97.4443 146.609 97.349C146.598 97.2536 146.626 97.1581 146.687 97.0835C146.747 97.0088 146.835 96.9611 146.931 96.9508C147.026 96.9405 147.122 96.9686 147.197 97.0288L246.102 176.433C246.139 176.463 246.17 176.499 246.193 176.541C246.216 176.583 246.23 176.628 246.235 176.676C246.24 176.723 246.236 176.771 246.223 176.816C246.209 176.862 246.187 176.904 246.157 176.941C246.127 176.978 246.09 177.009 246.048 177.032C246.006 177.054 245.961 177.069 245.913 177.074C245.866 177.079 245.818 177.075 245.772 177.061C245.726 177.048 245.684 177.026 245.647 176.996Z" fill="#CCCCCC"/>
<path d="M240.182 183.753L141.277 104.349C141.24 104.319 141.209 104.283 141.186 104.241C141.163 104.199 141.149 104.154 141.144 104.106C141.139 104.059 141.143 104.011 141.157 103.966C141.17 103.92 141.192 103.878 141.222 103.841C141.252 103.804 141.289 103.773 141.331 103.75C141.373 103.728 141.419 103.713 141.466 103.708C141.513 103.703 141.561 103.707 141.607 103.721C141.653 103.734 141.695 103.756 141.732 103.786L240.637 183.19C240.675 183.22 240.705 183.257 240.728 183.298C240.751 183.34 240.766 183.386 240.771 183.433C240.776 183.48 240.772 183.528 240.758 183.574C240.745 183.619 240.723 183.662 240.693 183.699C240.663 183.736 240.626 183.767 240.584 183.789C240.542 183.812 240.496 183.826 240.449 183.831C240.401 183.837 240.353 183.832 240.308 183.819C240.262 183.805 240.219 183.783 240.182 183.753Z" fill="#CCCCCC"/>
<path d="M269.637 195H0.362903C0.266655 195 0.174349 194.962 0.106292 194.894C0.0382341 194.826 0 194.734 0 194.638C0 194.543 0.0382341 194.451 0.106292 194.383C0.174349 194.315 0.266655 194.277 0.362903 194.277H269.637C269.733 194.277 269.826 194.315 269.894 194.383C269.962 194.451 270 194.543 270 194.638C270 194.734 269.962 194.826 269.894 194.894C269.826 194.962 269.733 195 269.637 195Z" fill="#CCCCCC"/>
<path d="M122.691 141.245L118.542 141.244L116.569 125.3L122.692 125.301L122.691 141.245Z" fill="#FFB8B8"/>
<path d="M115.578 140.063H123.58V145.083H110.541C110.541 144.424 110.671 143.771 110.924 143.162C111.177 142.553 111.548 142 112.016 141.534C112.484 141.068 113.039 140.698 113.65 140.446C114.262 140.193 114.917 140.063 115.578 140.063Z" fill="#41332E"/>
<path d="M80.3054 141.245L76.1567 141.244L74.1836 125.3L80.3069 125.301L80.3054 141.245Z" fill="#FFB8B8"/>
<path d="M73.1931 140.063H81.1943V145.083H68.1553C68.1553 144.424 68.2856 143.771 68.5388 143.162C68.7919 142.553 69.163 142 69.6308 141.534C70.0986 141.068 70.654 140.698 71.2652 140.446C71.8764 140.193 72.5315 140.063 73.1931 140.063Z" fill="#41332E"/>
<path d="M94.1628 22.9726V21.1647C94.1628 18.0719 95.3959 15.1058 97.5908 12.9189C99.7856 10.732 102.762 9.50342 105.866 9.50342C108.97 9.50342 111.947 10.732 114.142 12.9189C116.337 15.1058 117.57 18.0719 117.57 21.1647V22.9726C117.57 25.2023 116.681 27.3406 115.099 28.9173C113.516 30.4939 111.37 31.3796 109.133 31.3796H102.6C101.492 31.3796 100.395 31.1621 99.3715 30.7397C98.3478 30.3172 97.4176 29.6979 96.6341 28.9173C95.8506 28.1366 95.2291 27.2098 94.8051 26.1898C94.3811 25.1699 94.1628 24.0767 94.1628 22.9726Z" fill="#41332E"/>
<path d="M105.866 32.0018C110.789 32.0018 114.78 28.0256 114.78 23.1208C114.78 18.2159 110.789 14.2397 105.866 14.2397C100.944 14.2397 96.9531 18.2159 96.9531 23.1208C96.9531 28.0256 100.944 32.0018 105.866 32.0018Z" fill="#FFB8B8"/>
<path d="M57.384 53.6436C57.7457 53.3033 58.1779 53.0462 58.6501 52.8903C59.1224 52.7344 59.6232 52.6836 60.1173 52.7414C60.6113 52.7992 61.0867 52.9643 61.5098 53.225C61.933 53.4857 62.2936 53.8356 62.5663 54.2502L70.2071 52.8101L72.2179 57.2231L61.399 59.1058C60.6696 59.5161 59.8146 59.6456 58.9958 59.4697C58.177 59.2939 57.4514 58.8249 56.9565 58.1516C56.4616 57.4783 56.2318 56.6475 56.3106 55.8167C56.3894 54.9858 56.7713 54.2127 57.384 53.6436Z" fill="#FFB8B8"/>
<path d="M99.0174 37.7456L86.4879 45.9697L65.3457 52.6964C65.0655 52.7862 64.8251 52.9699 64.6655 53.2164C64.5059 53.4628 64.437 53.7568 64.4704 54.0482L64.9316 58.0063C64.9521 58.1815 65.0091 58.3505 65.0989 58.5025C65.1887 58.6544 65.3094 58.786 65.4533 58.8888C65.5972 58.9915 65.761 59.0632 65.9342 59.0992C66.1075 59.1352 66.2864 59.1347 66.4595 59.0978L86.3574 54.8481C87.3204 54.6436 88.2309 54.2442 89.0325 53.6746L103.109 43.6958C103.619 43.3321 104.026 42.843 104.291 42.2761C104.555 41.7092 104.668 41.0837 104.618 40.4605C104.566 39.8365 104.352 39.2366 103.998 38.7199C103.643 38.2031 103.159 37.7874 102.594 37.5134C102.029 37.2395 101.402 37.1168 100.775 37.1575C100.148 37.1982 99.542 37.4009 99.0174 37.7456Z" fill="#CCCCCC"/>
<path d="M118.616 136.72C118.298 136.72 117.986 136.628 117.719 136.454C117.453 136.281 117.243 136.034 117.114 135.743L98.0947 88.9172C98.0503 88.8156 97.9757 88.73 97.8811 88.672C97.7864 88.6139 97.6761 88.5861 97.5651 88.5923C97.4541 88.5985 97.3477 88.6385 97.2601 88.7068C97.1726 88.7751 97.1081 88.8685 97.0755 88.9744L81.5583 134.561C81.4928 134.773 81.3845 134.97 81.2399 135.139C81.0953 135.308 80.9176 135.445 80.7177 135.543C80.5178 135.641 80.2999 135.697 80.0774 135.708C79.8549 135.719 79.6325 135.685 79.4239 135.607L74.2204 133.662C73.938 133.558 73.6902 133.377 73.5046 133.141C73.319 132.904 73.2029 132.621 73.1691 132.323C70.8282 112.004 91.2417 60.7175 91.4482 60.2019L91.5054 60.0591L110.114 64.1605L110.153 64.2025C117.577 72.2724 123.679 123.171 124.827 133.293C124.87 133.658 124.787 134.028 124.591 134.34C124.395 134.651 124.098 134.888 123.749 135.009L119.156 136.628C118.983 136.689 118.8 136.72 118.616 136.72Z" fill="#41332E"/>
<path d="M102.583 65.8112C98.0743 65.8112 93.0478 64.9156 91.5006 61.2188L91.465 61.1339L91.5131 61.0551C92.7343 59.0586 94.3484 55.6528 93.4809 55.0135C91.7719 53.7545 90.9426 51.6833 91.0162 48.8573C91.1761 42.7227 95.3712 37.276 101.455 35.3041C103.154 34.7626 104.882 34.3192 106.632 33.9762C107.907 33.7198 109.224 33.748 110.487 34.0588C111.75 34.3696 112.929 34.9553 113.938 35.7739C114.96 36.5978 115.785 37.637 116.356 38.8168C116.927 39.9966 117.228 41.2877 117.239 42.5973C117.303 49.1532 116.29 58.2842 111.101 64.5531C110.858 64.8439 110.52 65.04 110.146 65.1068C107.65 65.5566 105.119 65.7923 102.583 65.8112Z" fill="#CCCCCC"/>
<path d="M100.906 65.5658C101.151 64.6889 101.734 63.9438 102.527 63.4926C103.321 63.0414 104.261 62.9205 105.144 63.1562C105.324 63.2063 105.5 63.2712 105.669 63.3501L111.471 58.0894L115.506 60.7978L107.209 68.113C106.834 68.7861 106.245 69.3149 105.534 69.6154C104.822 69.916 104.031 69.9709 103.285 69.7715C102.85 69.653 102.444 69.4498 102.088 69.1738C101.733 68.8977 101.436 68.5542 101.215 68.1631C100.994 67.772 100.852 67.3411 100.799 66.8953C100.746 66.4495 100.782 65.9977 100.906 65.5658Z" fill="#FFB8B8"/>
<path d="M110.552 65.6326C110.175 65.6328 109.81 65.5031 109.519 65.2655L107.231 63.4026C107.041 63.2474 106.888 63.0511 106.784 62.8285C106.68 62.606 106.628 62.3629 106.632 62.1176C106.636 61.8722 106.695 61.6308 106.806 61.4116C106.916 61.1924 107.075 61.0009 107.271 60.8516L116.867 53.5186C116.98 53.4313 117.055 53.3028 117.074 53.161C117.093 53.0192 117.056 52.8755 116.969 52.7612L111.047 44.9595C110.359 44.0561 110.014 42.9392 110.072 41.8066C110.131 40.6741 110.591 39.5988 111.369 38.7711C112.188 37.8892 113.311 37.3464 114.513 37.2506C115.716 37.1548 116.91 37.5129 117.86 38.2538L117.898 38.2932L124.082 47.1168C124.751 47.6393 125.29 48.3087 125.656 49.0728C126.022 49.8369 126.206 50.6751 126.193 51.5217C126.181 52.3684 125.972 53.2007 125.583 53.9536C125.194 54.7065 124.636 55.3597 123.952 55.8621L111.524 65.3135C111.242 65.5207 110.902 65.6326 110.552 65.6326Z" fill="#CCCCCC"/>
<path d="M97.9712 20.6227V16.2163L105.866 12.7812L113.395 16.2163V20.6227C113.395 20.8145 113.318 20.9985 113.182 21.1341C113.046 21.2697 112.861 21.3459 112.669 21.3459H98.697C98.5045 21.3459 98.3199 21.2697 98.1838 21.1341C98.0477 20.9985 97.9712 20.8145 97.9712 20.6227Z" fill="#41332E"/>
<path d="M105.504 10.0882C104.343 6.38606 106.781 2.14324 110.385 0.677839C113.989 -0.787563 118.301 0.236798 121.343 2.65786C124.384 5.07893 126.271 8.70523 127.271 12.4537C128.27 16.2023 128.46 20.1111 128.645 23.9853C133.073 24.7958 136.085 30.029 134.551 34.2466C133.017 38.4642 127.339 40.5595 123.418 38.3551C119.497 36.1507 118.361 30.2249 121.191 26.7359C122.53 25.085 123.278 23.0361 123.317 20.9138C123.355 18.7915 122.682 16.717 121.404 15.019C120.125 13.321 118.315 12.0964 116.259 11.5393C114.203 10.9822 112.02 11.1244 110.054 11.9434C107.872 12.8528 105.134 10.49 105.504 10.0882Z" fill="#41332E"/>
<path d="M55.7472 36.5506C50.4454 36.516 45.2099 35.3734 40.3789 33.1969C40.0913 33.0692 39.8472 32.8609 39.6763 32.5975C39.5055 32.334 39.4152 32.0267 39.4165 31.713V18.5446C39.417 18.1132 39.5892 17.6996 39.8954 17.3946C40.2015 17.0895 40.6166 16.918 41.0496 16.9175H70.4447C70.8777 16.918 71.2928 17.0896 71.599 17.3946C71.9051 17.6996 72.0773 18.1132 72.0778 18.5446V31.713C72.0791 32.0267 71.9888 32.334 71.818 32.5975C71.6471 32.861 71.403 33.0692 71.1154 33.197C66.2845 35.3735 61.0489 36.516 55.7472 36.5506Z" fill="#C74635"/>
<path d="M55.7431 25.8824C55.5252 25.8825 55.3094 25.8393 55.1085 25.7552L31.7985 15.9563C31.4979 15.83 31.2422 15.6168 31.0643 15.3443C30.8865 15.0718 30.7946 14.7524 30.8006 14.4274C30.8065 14.1024 30.9101 13.7866 31.0979 13.5208C31.2857 13.2549 31.549 13.0512 31.8541 12.936L55.1644 4.12485C55.5398 3.98228 55.9549 3.98316 56.3298 4.12732L79.3277 12.9384C79.631 13.0546 79.8926 13.2584 80.0791 13.5236C80.2655 13.7888 80.3683 14.1034 80.3743 14.4271C80.3803 14.7508 80.2893 15.069 80.1128 15.3409C79.9363 15.6128 79.6824 15.826 79.3836 15.9533L56.3854 25.7521C56.1823 25.8382 55.9638 25.8826 55.7431 25.8824Z" fill="#C74635"/>
<path d="M42.1381 34.093C43.3407 34.093 44.3155 33.1216 44.3155 31.9234C44.3155 30.7252 43.3407 29.7539 42.1381 29.7539C40.9356 29.7539 39.9607 30.7252 39.9607 31.9234C39.9607 33.1216 40.9356 34.093 42.1381 34.093Z" fill="#56433D"/>
<path opacity="0.2" d="M79.4631 14.5625L56.4648 24.3613C56.2855 24.4377 56.0926 24.4773 55.8976 24.4778C55.7026 24.4783 55.5095 24.4396 55.3299 24.364L32.0199 14.5654C31.7272 14.4453 31.4829 14.2314 31.3258 13.9575C31.223 14.1351 31.1593 14.3325 31.139 14.5365C31.1186 14.7404 31.142 14.9464 31.2077 15.1407C31.2733 15.335 31.3797 15.5131 31.5197 15.6633C31.6598 15.8135 31.8303 15.9323 32.0199 16.0118L55.3299 25.8104C55.5095 25.8859 55.7026 25.9246 55.8976 25.9241C56.0926 25.9237 56.2855 25.8841 56.4648 25.8077L79.4631 16.0089C79.6518 15.9287 79.8213 15.8096 79.9603 15.6593C80.0994 15.5091 80.2049 15.3311 80.2699 15.1373C80.3349 14.9434 80.3578 14.738 80.3373 14.5346C80.3167 14.3313 80.2531 14.1346 80.1506 13.9575C79.9947 14.2292 79.753 14.4419 79.4631 14.5625Z" fill="black"/>
<path d="M42.3212 31.9148C42.4174 31.9148 42.5097 31.8767 42.5778 31.8089C42.6458 31.7411 42.6841 31.6491 42.6841 31.5532V19.454L54.653 15.1094C54.7493 15.1108 54.8422 15.0741 54.9112 15.0073C54.9803 14.9405 55.0199 14.8491 55.0214 14.7532C55.0228 14.6573 54.9859 14.5648 54.9189 14.4959C54.8518 14.4271 54.7601 14.3877 54.6639 14.3862L42.6949 18.7308C42.5986 18.7286 42.5028 18.7459 42.4134 18.7816C42.324 18.8174 42.2428 18.8708 42.1747 18.9388C42.1059 19.0059 42.0513 19.086 42.0141 19.1745C41.977 19.263 41.958 19.358 41.9583 19.454V31.5532C41.9583 31.6491 41.9965 31.7411 42.0646 31.8089C42.1326 31.8767 42.2249 31.9148 42.3212 31.9148Z" fill="#56433D"/>
</g>
<defs>
<clipPath id="clip0_664_3406">
<rect width="270" height="195" fill="white"/>
</clipPath>
</defs>
</svg>
