<svg width="167" height="198" viewBox="0 0 167 198" fill="none" xmlns="http://www.w3.org/2000/svg">
<rect width="167" height="198" rx="18" fill="black" fill-opacity="0.65"/>
<path d="M64.6992 80H61C55.6 80 53 85.2522 53 88.8884C53 92.5245 53 92.7265 53 97.3727C53 113.533 69 122.826 69 122.826V127" stroke="white" stroke-width="3" stroke-miterlimit="10" stroke-linecap="round" stroke-linejoin="round"/>
<path d="M75 78.8976V45.0493C75 42.2602 72.9857 40 70.5 40C68.0143 40 66 42.2602 66 45.0493V92" stroke="white" stroke-width="3" stroke-miterlimit="10" stroke-linecap="round" stroke-linejoin="round"/>
<path d="M86 81V65.9996C86 63.2379 83.5381 61 80.5 61C77.4619 61 75 63.2379 75 65.9996V75.3242" stroke="white" stroke-width="3" stroke-miterlimit="10" stroke-linecap="round" stroke-linejoin="round"/>
<path d="M96 84V68.2496C96 65.3498 93.7619 63 91 63C88.2381 63 86 65.3498 86 68.2496V78.0404" stroke="white" stroke-width="3" stroke-miterlimit="10" stroke-linecap="round" stroke-linejoin="round"/>
<path d="M96 83.5341V74.0729C96 71.2707 98.4619 69 101.5 69C104.538 69 107 71.2707 107 74.0729V89.2932C107 89.2932 107 93.9547 107 97.6569C107 101.359 105.96 115.757 98.5261 122.75V127" stroke="white" stroke-width="3" stroke-miterlimit="10" stroke-linecap="round" stroke-linejoin="round"/>
<path d="M97 115C98.8262 111.94 100.578 107.413 101 101" stroke="white" stroke-width="3" stroke-miterlimit="10" stroke-linecap="round" stroke-linejoin="round"/>
<path d="M94 120C94 120 94.3997 119.694 95 119" stroke="white" stroke-width="3" stroke-miterlimit="10" stroke-linecap="round" stroke-linejoin="round"/>
<path fill-rule="evenodd" clip-rule="evenodd" d="M91.6379 40.4771C91.6379 40.4771 88.9517 37.2737 87.0915 35.0546C86.5925 34.4598 86.5925 33.5396 87.0915 32.9447C88.9517 30.7257 91.6379 27.5233 91.6379 27.5233C92.1478 26.9155 92.1152 25.9642 91.5654 25.4004C91.0157 24.8366 90.1553 24.8727 89.6463 25.4805C89.6463 25.4805 86.9602 28.6829 85.099 30.9019C83.6337 32.6493 83.6337 35.3501 85.099 37.0975C86.9602 39.3165 89.6463 42.5199 89.6463 42.5199C90.1553 43.1277 91.0157 43.1628 91.5654 42.6C92.1152 42.0362 92.1478 41.0849 91.6379 40.4771Z" fill="white"/>
<path fill-rule="evenodd" clip-rule="evenodd" d="M123.649 42.5199C123.649 42.5199 126.67 39.3165 128.764 37.0975C130.412 35.3501 130.412 32.6493 128.764 30.9019C126.67 28.6829 123.649 25.4805 123.649 25.4805C123.075 24.8727 122.107 24.8366 121.489 25.4004C120.87 25.9642 120.834 26.9155 121.407 27.5233C121.407 27.5233 124.429 30.7257 126.522 32.9447C127.084 33.5396 127.084 34.4598 126.522 35.0546C124.429 37.2737 121.407 40.4771 121.407 40.4771C120.834 41.0849 120.87 42.0362 121.489 42.6C122.107 43.1628 123.075 43.1277 123.649 42.5199Z" fill="white"/>
<path fill-rule="evenodd" clip-rule="evenodd" d="M126.561 31H85.4388C84.6446 31 84 31.896 84 33C84 34.104 84.6446 35 85.4388 35H126.561C127.355 35 128 34.104 128 33C128 31.896 127.355 31 126.561 31Z" fill="white"/>
<path d="M21.488 169V164.408H17.424V169H15.504V158.12H17.424V162.568H21.488V158.12H23.408V169H21.488ZM32.8103 164.456V165.416C32.8103 166.547 32.5009 167.453 31.8823 168.136C31.2636 168.819 30.3889 169.16 29.2583 169.16C28.1276 169.16 27.2529 168.819 26.6343 168.136C26.0156 167.453 25.7063 166.547 25.7063 165.416V164.456C25.7063 163.325 26.0103 162.424 26.6183 161.752C27.2369 161.069 28.1169 160.728 29.2583 160.728C30.3996 160.728 31.2743 161.069 31.8823 161.752C32.5009 162.424 32.8103 163.325 32.8103 164.456ZM30.9223 164.456C30.9223 163.805 30.7783 163.299 30.4903 162.936C30.2023 162.563 29.7916 162.376 29.2583 162.376C28.7249 162.376 28.3143 162.563 28.0263 162.936C27.7383 163.299 27.5943 163.805 27.5943 164.456V165.416C27.5943 166.067 27.7383 166.579 28.0263 166.952C28.3143 167.325 28.7249 167.512 29.2583 167.512C29.7916 167.512 30.2023 167.325 30.4903 166.952C30.7783 166.579 30.9223 166.067 30.9223 165.416V164.456ZM39.4494 162.568C38.948 162.568 38.468 162.648 38.0094 162.808C37.5614 162.957 37.1294 163.203 36.7134 163.544V169H34.8734V160.888H36.6174V162.136C37.1614 161.624 37.6467 161.261 38.0734 161.048C38.5 160.835 38.9587 160.728 39.4494 160.728V162.568ZM42.9489 159.352H41.0129V157.448H42.9489V159.352ZM42.9009 169H41.0609V160.888H42.9009V169ZM50.5239 167.4V169H44.7319V167.56L48.1559 162.488H44.8919V160.888H50.3639V162.328L46.9399 167.4H50.5239ZM58.9821 164.456V165.416C58.9821 166.547 58.6728 167.453 58.0541 168.136C57.4355 168.819 56.5608 169.16 55.4301 169.16C54.2995 169.16 53.4248 168.819 52.8061 168.136C52.1875 167.453 51.8781 166.547 51.8781 165.416V164.456C51.8781 163.325 52.1821 162.424 52.7901 161.752C53.4088 161.069 54.2888 160.728 55.4301 160.728C56.5715 160.728 57.4461 161.069 58.0541 161.752C58.6728 162.424 58.9821 163.325 58.9821 164.456ZM57.0941 164.456C57.0941 163.805 56.9501 163.299 56.6621 162.936C56.3741 162.563 55.9635 162.376 55.4301 162.376C54.8968 162.376 54.4861 162.563 54.1981 162.936C53.9101 163.299 53.7661 163.805 53.7661 164.456V165.416C53.7661 166.067 53.9101 166.579 54.1981 166.952C54.4861 167.325 54.8968 167.512 55.4301 167.512C55.9635 167.512 56.3741 167.325 56.6621 166.952C56.9501 166.579 57.0941 166.067 57.0941 165.416V164.456ZM65.0133 162.44C64.7466 162.44 64.4426 162.504 64.1013 162.632C63.7599 162.76 63.3546 163.011 62.8853 163.384V169H61.0453V160.888H62.7893V161.976C63.2906 161.539 63.7653 161.224 64.2133 161.032C64.6613 160.829 65.1146 160.728 65.5733 160.728C66.3519 160.728 66.9439 160.979 67.3493 161.48C67.7546 161.971 67.9573 162.664 67.9573 163.56V169H66.1173V163.784C66.1173 162.888 65.7493 162.44 65.0133 162.44ZM75.269 168.728C74.9917 168.856 74.6717 168.957 74.309 169.032C73.9463 169.117 73.5783 169.16 73.205 169.16C72.5863 169.16 72.0903 169.032 71.717 168.776C71.3437 168.52 71.0717 168.163 70.901 167.704C70.741 167.245 70.661 166.723 70.661 166.136V162.488H69.349V160.888H70.661V158.776H72.501V160.888H75.029V162.488H72.501V166.136C72.501 166.627 72.5917 166.968 72.773 167.16C72.965 167.341 73.237 167.432 73.589 167.432C73.7597 167.432 73.941 167.416 74.133 167.384C74.3357 167.341 74.5597 167.272 74.805 167.176L75.269 168.728ZM82.8924 169.08C82.3484 169.08 81.911 168.968 81.5804 168.744C81.2604 168.52 81.0257 168.243 80.8764 167.912C80.4177 168.339 79.975 168.653 79.5484 168.856C79.1217 169.059 78.663 169.16 78.1724 169.16C77.4577 169.16 76.9297 168.931 76.5884 168.472C76.2577 168.013 76.0924 167.432 76.0924 166.728C76.0924 166.259 76.1777 165.848 76.3484 165.496C76.5297 165.133 76.823 164.851 77.2284 164.648C77.6337 164.445 78.1884 164.344 78.8924 164.344C79.1697 164.344 79.4577 164.365 79.7564 164.408C80.055 164.44 80.3537 164.483 80.6524 164.536V163.592C80.6524 163.144 80.5297 162.84 80.2844 162.68C80.039 162.509 79.7084 162.424 79.2924 162.424C78.9724 162.424 78.6204 162.467 78.2364 162.552C77.863 162.637 77.4577 162.771 77.0204 162.952L76.4924 161.384C77.5697 160.947 78.5457 160.728 79.4204 160.728C80.2097 160.728 80.8177 160.861 81.2444 161.128C81.6817 161.395 81.9857 161.747 82.1564 162.184C82.327 162.621 82.4124 163.091 82.4124 163.592V166.712C82.4124 166.872 82.455 167.027 82.5404 167.176C82.6364 167.315 82.8177 167.384 83.0844 167.384H83.2604V169.08H82.8924ZM77.8684 166.696C77.8684 166.984 77.9324 167.213 78.0604 167.384C78.1884 167.544 78.375 167.624 78.6204 167.624C78.8657 167.624 79.143 167.56 79.4524 167.432C79.7617 167.304 80.1617 167.005 80.6524 166.536V165.848C80.0977 165.752 79.5537 165.704 79.0204 165.704C78.6044 165.704 78.3057 165.789 78.1244 165.96C77.9537 166.131 77.8684 166.376 77.8684 166.696ZM84.8098 166.712V157.16H86.6498V166.712C86.6498 166.872 86.6871 167.027 86.7618 167.176C86.8471 167.315 87.0071 167.384 87.2418 167.384H87.4978V169.08H87.0498C86.4418 169.08 85.9778 168.963 85.6578 168.728C85.3378 168.493 85.1138 168.195 84.9858 167.832C84.8684 167.469 84.8098 167.096 84.8098 166.712ZM95.0908 167.384C96.3281 167.384 96.9468 166.925 96.9468 166.008C96.9468 165.635 96.8508 165.341 96.6588 165.128C96.4774 164.915 96.1361 164.728 95.6348 164.568L94.3228 164.136C92.7548 163.624 91.9708 162.595 91.9708 161.048C91.9708 160.152 92.2481 159.416 92.8028 158.84C93.3681 158.253 94.2481 157.96 95.4427 157.96C95.9441 157.96 96.4401 158.019 96.9308 158.136C97.4214 158.243 97.9441 158.419 98.4988 158.664L97.9068 160.312C97.3948 160.109 96.9574 159.965 96.5948 159.88C96.2428 159.784 95.8801 159.736 95.5068 159.736C95.0161 159.736 94.6268 159.827 94.3388 160.008C94.0614 160.179 93.9228 160.493 93.9228 160.952C93.9228 161.293 94.0188 161.576 94.2108 161.8C94.4134 162.013 94.7441 162.195 95.2028 162.344L96.5148 162.776C97.3041 163.043 97.8961 163.432 98.2908 163.944C98.6961 164.445 98.8988 165.112 98.8988 165.944C98.8988 166.904 98.5948 167.683 97.9868 168.28C97.3788 168.867 96.4241 169.16 95.1228 169.16C94.6108 169.16 94.0774 169.101 93.5228 168.984C92.9788 168.856 92.3814 168.643 91.7308 168.344L92.3228 166.696C92.9201 166.952 93.4268 167.133 93.8428 167.24C94.2694 167.336 94.6854 167.384 95.0908 167.384ZM102.172 164.472V165.416C102.172 166.099 102.295 166.611 102.54 166.952C102.785 167.293 103.18 167.464 103.724 167.464C103.991 167.464 104.289 167.432 104.62 167.368C104.961 167.293 105.329 167.181 105.724 167.032L106.252 168.584C105.772 168.776 105.319 168.92 104.892 169.016C104.465 169.112 104.044 169.16 103.628 169.16C102.561 169.16 101.745 168.819 101.18 168.136C100.615 167.453 100.332 166.547 100.332 165.416V164.472C100.332 163.331 100.615 162.424 101.18 161.752C101.745 161.069 102.561 160.728 103.628 160.728C104.033 160.728 104.444 160.776 104.86 160.872C105.276 160.968 105.713 161.107 106.172 161.288L105.644 162.872C104.876 162.573 104.236 162.424 103.724 162.424C103.18 162.424 102.785 162.595 102.54 162.936C102.295 163.267 102.172 163.779 102.172 164.472ZM112.512 162.568C112.011 162.568 111.531 162.648 111.072 162.808C110.624 162.957 110.192 163.203 109.776 163.544V169H107.936V160.888H109.68V162.136C110.224 161.624 110.709 161.261 111.136 161.048C111.563 160.835 112.021 160.728 112.512 160.728V162.568ZM120.763 164.456V165.416C120.763 166.547 120.454 167.453 119.835 168.136C119.217 168.819 118.342 169.16 117.211 169.16C116.081 169.16 115.206 168.819 114.587 168.136C113.969 167.453 113.659 166.547 113.659 165.416V164.456C113.659 163.325 113.963 162.424 114.571 161.752C115.19 161.069 116.07 160.728 117.211 160.728C118.353 160.728 119.227 161.069 119.835 161.752C120.454 162.424 120.763 163.325 120.763 164.456ZM118.875 164.456C118.875 163.805 118.731 163.299 118.443 162.936C118.155 162.563 117.745 162.376 117.211 162.376C116.678 162.376 116.267 162.563 115.979 162.936C115.691 163.299 115.547 163.805 115.547 164.456V165.416C115.547 166.067 115.691 166.579 115.979 166.952C116.267 167.325 116.678 167.512 117.211 167.512C117.745 167.512 118.155 167.325 118.443 166.952C118.731 166.579 118.875 166.067 118.875 165.416V164.456ZM122.779 166.712V157.16H124.619V166.712C124.619 166.872 124.656 167.027 124.731 167.176C124.816 167.315 124.976 167.384 125.211 167.384H125.467V169.08H125.019C124.411 169.08 123.947 168.963 123.627 168.728C123.307 168.493 123.083 168.195 122.955 167.832C122.837 167.469 122.779 167.096 122.779 166.712ZM127.2 166.712V157.16H129.04V166.712C129.04 166.872 129.078 167.027 129.152 167.176C129.238 167.315 129.398 167.384 129.632 167.384H129.888V169.08H129.44C128.832 169.08 128.368 168.963 128.048 168.728C127.728 168.493 127.504 168.195 127.376 167.832C127.259 167.469 127.2 167.096 127.2 166.712ZM133.558 159.352H131.622V157.448H133.558V159.352ZM133.51 169H131.67V160.888H133.51V169ZM140.013 162.44C139.747 162.44 139.443 162.504 139.101 162.632C138.76 162.76 138.355 163.011 137.885 163.384V169H136.045V160.888H137.789V161.976C138.291 161.539 138.765 161.224 139.213 161.032C139.661 160.829 140.115 160.728 140.573 160.728C141.352 160.728 141.944 160.979 142.349 161.48C142.755 161.971 142.957 162.664 142.957 163.56V169H141.117V163.784C141.117 162.888 140.749 162.44 140.013 162.44ZM152.125 169.816C152.125 170.68 151.784 171.352 151.101 171.832C150.429 172.323 149.49 172.568 148.285 172.568C147.72 172.568 147.122 172.504 146.493 172.376C145.864 172.248 145.282 172.035 144.749 171.736L145.277 170.28C145.789 170.536 146.296 170.717 146.797 170.824C147.298 170.941 147.789 171 148.269 171C148.941 171 149.453 170.909 149.805 170.728C150.157 170.547 150.333 170.307 150.333 170.008C150.333 169.549 150.061 169.32 149.517 169.32H147.597C147.074 169.32 146.653 169.235 146.333 169.064C146.013 168.893 145.778 168.675 145.629 168.408C145.48 168.131 145.405 167.843 145.405 167.544C145.405 167.235 145.469 166.947 145.597 166.68C145.736 166.403 145.922 166.147 146.157 165.912C145.773 165.677 145.464 165.363 145.229 164.968C145.005 164.573 144.893 164.099 144.893 163.544C144.893 162.915 145.026 162.392 145.293 161.976C145.56 161.56 145.922 161.251 146.381 161.048C146.85 160.835 147.368 160.728 147.933 160.728H148.205C148.418 160.728 148.626 160.744 148.829 160.776C149.032 160.797 149.224 160.835 149.405 160.888H152.301V162.456L150.701 162.2C150.861 162.371 150.984 162.584 151.069 162.84C151.165 163.085 151.213 163.389 151.213 163.752C151.213 164.296 151.074 164.765 150.797 165.16C150.53 165.544 150.168 165.843 149.709 166.056C149.261 166.259 148.76 166.36 148.205 166.36H147.933C147.72 166.36 147.517 166.344 147.325 166.312C147.208 166.44 147.122 166.573 147.069 166.712C147.016 166.84 146.989 166.963 146.989 167.08C146.989 167.453 147.229 167.64 147.709 167.64H149.661C150.397 167.64 150.989 167.832 151.437 168.216C151.896 168.589 152.125 169.123 152.125 169.816ZM148.205 164.856C148.536 164.856 148.824 164.744 149.069 164.52C149.325 164.296 149.453 163.971 149.453 163.544C149.453 163.117 149.325 162.792 149.069 162.568C148.824 162.344 148.536 162.232 148.205 162.232H147.933C147.592 162.232 147.293 162.344 147.037 162.568C146.792 162.792 146.669 163.117 146.669 163.544C146.669 163.971 146.792 164.296 147.037 164.52C147.293 164.744 147.592 164.856 147.933 164.856H148.205Z" fill="white"/>
</svg>
