<svg width="240" height="239" viewBox="0 0 240 239" fill="none" xmlns="http://www.w3.org/2000/svg">
<g clip-path="url(#clip0_657_1538)">
<path d="M158.305 63.3197H118.913C118.051 63.3223 117.199 63.128 116.423 62.7517C115.647 62.3753 114.967 61.8268 114.435 61.1479C113.893 60.4625 113.514 59.6625 113.328 58.8087C113.142 57.9548 113.153 57.0697 113.36 56.2207C116.99 41.0042 116.99 25.1463 113.36 9.92982C113.153 9.08082 113.142 8.19577 113.328 7.34199C113.514 6.48822 113.893 5.68822 114.435 5.00287C114.967 4.32389 115.647 3.77535 116.423 3.39901C117.199 3.02267 118.051 2.82843 118.913 2.83108H158.305C159.665 2.83499 160.98 3.32186 162.015 4.20495C163.05 5.08805 163.738 6.31004 163.956 7.65328C166.549 24.5021 166.549 41.6487 163.956 58.4975C163.738 59.8407 163.05 61.0627 162.015 61.9458C160.98 62.8289 159.665 63.3158 158.305 63.3197Z" fill="#D2CFCF"/>
<path d="M118.913 5.79689C118.499 5.7955 118.09 5.88865 117.718 6.06925C117.345 6.24985 117.018 6.51314 116.762 6.8391C116.499 7.17307 116.315 7.56275 116.225 7.97848C116.135 8.39422 116.141 8.82507 116.242 9.23825C119.981 24.9094 119.981 41.2412 116.242 56.9124C116.141 57.3254 116.135 57.7562 116.225 58.1719C116.315 58.5875 116.499 58.9771 116.762 59.311C117.018 59.6371 117.345 59.9007 117.718 60.0813C118.09 60.262 118.499 60.3551 118.913 60.3537H158.305C158.959 60.3539 159.591 60.1222 160.089 59.6997C160.587 59.2772 160.92 58.6915 161.027 58.0468C163.573 41.4966 163.573 24.654 161.027 8.10383C160.92 7.45911 160.587 6.87336 160.089 6.45089C159.591 6.02842 158.959 5.79666 158.305 5.79688L118.913 5.79689Z" fill="#E7E7E7"/>
<path d="M149.709 20.0583H129.038C128.252 20.0574 127.499 19.7447 126.943 19.1887C126.387 18.6327 126.075 17.8788 126.074 17.0925V15.9335C126.075 15.1472 126.387 14.3934 126.943 13.8374C127.499 13.2814 128.252 12.9686 129.038 12.9678H149.709C150.495 12.9686 151.248 13.2814 151.804 13.8374C152.36 14.3934 152.672 15.1472 152.673 15.9335V17.0925C152.672 17.8788 152.36 18.6327 151.804 19.1887C151.248 19.7447 150.495 20.0574 149.709 20.0583Z" fill="#D2CFCF"/>
<path d="M149.709 34.7028H129.038C128.252 34.7019 127.499 34.3892 126.943 33.8332C126.387 33.2772 126.075 32.5233 126.074 31.737V30.5781C126.075 29.7918 126.387 29.0379 126.943 28.4819C127.499 27.9259 128.252 27.6132 129.038 27.6123H149.709C150.495 27.6132 151.248 27.9259 151.804 28.4819C152.36 29.0379 152.672 29.7918 152.673 30.5781V31.737C152.672 32.5233 152.36 33.2772 151.804 33.8332C151.248 34.3892 150.495 34.7019 149.709 34.7028Z" fill="#D2CFCF"/>
<path d="M149.709 49.3473H129.038C128.252 49.3465 127.499 49.0337 126.943 48.4777C126.387 47.9217 126.075 47.1679 126.074 46.3816V45.2226C126.075 44.4363 126.387 43.6824 126.943 43.1264C127.499 42.5704 128.252 42.2577 129.038 42.2568H149.709C150.495 42.2577 151.248 42.5704 151.804 43.1264C152.36 43.6824 152.672 44.4363 152.673 45.2226V46.3816C152.672 47.1679 152.36 47.9217 151.804 48.4777C151.248 49.0337 150.495 49.3465 149.709 49.3473Z" fill="#D2CFCF"/>
<path d="M232.405 100.888H193.013C192.15 100.891 191.299 100.696 190.523 100.32C189.747 99.9437 189.067 99.3952 188.534 98.7162C187.992 98.0309 187.614 97.2309 187.428 96.377C187.241 95.5232 187.252 94.6381 187.459 93.789C191.09 78.5726 191.09 62.7146 187.459 47.4982C187.252 46.6492 187.241 45.7641 187.428 44.9104C187.614 44.0566 187.992 43.2566 188.534 42.5712C189.067 41.8922 189.747 41.3437 190.523 40.9674C191.299 40.591 192.15 40.3968 193.013 40.3994H232.405C233.765 40.4034 235.079 40.8902 236.114 41.7733C237.149 42.6564 237.837 43.8784 238.056 45.2216C240.648 62.0704 240.648 79.217 238.056 96.0658C237.837 97.4091 237.149 98.6311 236.114 99.5142C235.079 100.397 233.765 100.884 232.405 100.888Z" fill="#D2CFCF"/>
<path d="M193.013 43.3652C192.599 43.3639 192.19 43.457 191.817 43.6376C191.444 43.8182 191.117 44.0815 190.862 44.4075C190.598 44.7414 190.415 45.1311 190.324 45.5468C190.234 45.9626 190.24 46.3934 190.341 46.8066C194.08 62.4777 194.08 78.8096 190.341 94.4807C190.24 94.8938 190.234 95.3246 190.324 95.7402C190.415 96.1559 190.598 96.5455 190.862 96.8794C191.117 97.2054 191.444 97.469 191.817 97.6497C192.19 97.8303 192.599 97.9235 193.013 97.9221H232.405C233.058 97.9223 233.69 97.6905 234.188 97.2681C234.687 96.8456 235.019 96.2598 235.126 95.6151C237.673 79.065 237.673 62.2223 235.126 45.6722C235.019 45.0275 234.687 44.4417 234.188 44.0193C233.69 43.5968 233.058 43.365 232.405 43.3652L193.013 43.3652Z" fill="#E7E7E7"/>
<path d="M153.859 143.646H114.467C113.568 143.649 112.679 143.446 111.87 143.053C111.06 142.661 110.35 142.088 109.795 141.38C109.23 140.665 108.835 139.831 108.641 138.941C108.447 138.051 108.458 137.128 108.674 136.242C112.295 121.064 112.295 105.245 108.674 90.0667C108.458 89.1814 108.447 88.2585 108.641 87.3682C108.835 86.4779 109.23 85.6437 109.795 84.929C110.35 84.2207 111.06 83.6484 111.87 83.2557C112.679 82.8631 113.568 82.6604 114.467 82.6631H153.859C155.278 82.6673 156.65 83.1755 157.729 84.0969C158.809 85.0184 159.526 86.2934 159.754 87.6948C162.351 104.569 162.351 121.741 159.754 138.614C159.526 140.016 158.809 141.291 157.729 142.212C156.65 143.134 155.278 143.642 153.859 143.646Z" fill="#F2F2F2"/>
<path d="M223.809 65.0407H203.137C202.352 65.0398 201.598 64.7271 201.043 64.1711C200.487 63.6151 200.174 62.8612 200.173 62.0749V60.9159C200.174 60.1296 200.487 59.3758 201.043 58.8198C201.598 58.2638 202.352 57.9511 203.137 57.9502H223.809C224.594 57.9511 225.348 58.2638 225.903 58.8198C226.459 59.3758 226.772 60.1296 226.772 60.9159V62.075C226.772 62.8613 226.459 63.6151 225.903 64.1711C225.348 64.7271 224.594 65.0398 223.809 65.0407Z" fill="#D2CFCF"/>
<path d="M223.809 79.6852H203.137C202.352 79.6844 201.598 79.3716 201.043 78.8156C200.487 78.2596 200.174 77.5058 200.173 76.7195V75.5605C200.174 74.7742 200.487 74.0203 201.043 73.4643C201.598 72.9083 202.352 72.5956 203.137 72.5947H223.809C224.594 72.5956 225.348 72.9083 225.903 73.4643C226.459 74.0203 226.772 74.7742 226.772 75.5605V76.7195C226.772 77.5058 226.459 78.2596 225.903 78.8156C225.348 79.3716 224.594 79.6844 223.809 79.6852Z" fill="#D2CFCF"/>
<path d="M134.274 124.319C140.549 124.319 145.636 119.229 145.636 112.95C145.636 106.671 140.549 101.581 134.274 101.581C127.999 101.581 122.912 106.671 122.912 112.95C122.912 119.229 127.999 124.319 134.274 124.319Z" fill="#E7E7E7"/>
<path d="M139.708 111.468H135.756V107.513C135.756 107.12 135.599 106.743 135.322 106.465C135.044 106.187 134.667 106.03 134.274 106.03C133.881 106.03 133.504 106.187 133.226 106.465C132.948 106.743 132.792 107.12 132.792 107.513V111.468H128.84C128.447 111.468 128.07 111.624 127.792 111.902C127.514 112.18 127.358 112.557 127.358 112.951C127.358 113.344 127.514 113.721 127.792 113.999C128.07 114.277 128.447 114.434 128.84 114.434H132.792V118.388C132.792 118.781 132.948 119.159 133.226 119.437C133.504 119.715 133.881 119.871 134.274 119.871C134.667 119.871 135.044 119.715 135.322 119.437C135.599 119.159 135.756 118.781 135.756 118.388V114.434H139.708C140.101 114.434 140.478 114.277 140.756 113.999C141.033 113.721 141.19 113.344 141.19 112.951C141.19 112.557 141.033 112.18 140.756 111.902C140.478 111.624 140.101 111.468 139.708 111.468Z" fill="#D2CFCF"/>
<path d="M148.599 8.40331H127.852C127.262 8.40264 126.697 8.16807 126.28 7.75106C125.864 7.33405 125.629 6.76865 125.629 6.1789V2.22441C125.629 1.63466 125.864 1.06926 126.28 0.652247C126.697 0.235234 127.262 0.000664632 127.852 0H148.599C149.189 0.000664632 149.754 0.235234 150.171 0.652247C150.587 1.06926 150.822 1.63466 150.822 2.22441V6.1789C150.822 6.76865 150.587 7.33405 150.171 7.75106C149.754 8.16807 149.189 8.40264 148.599 8.40331Z" fill="#C4B0B0"/>
<path d="M223.687 46.4658H202.939C202.35 46.4651 201.785 46.2306 201.368 45.8136C200.951 45.3965 200.717 44.8311 200.716 44.2414V40.2869C200.717 39.6972 200.951 39.1318 201.368 38.7148C201.785 38.2977 202.35 38.0632 202.939 38.0625H223.687C224.276 38.0632 224.841 38.2977 225.258 38.7148C225.675 39.1318 225.909 39.6972 225.91 40.2869V44.2414C225.909 44.8311 225.675 45.3965 225.258 45.8136C224.841 46.2306 224.276 46.4651 223.687 46.4658Z" fill="#C4B0B0"/>
<path d="M43.7661 232.852H49.8225L51.716 209.477H43.7651L43.7661 232.852Z" fill="#FFB8B8"/>
<path d="M42.2214 230.873L54.1484 230.872H54.1489C55.147 230.872 56.1354 231.069 57.0576 231.451C57.9798 231.833 58.8177 232.393 59.5235 233.1C60.2293 233.806 60.7892 234.644 61.1712 235.567C61.5531 236.49 61.7497 237.479 61.7497 238.478V238.725L42.2218 238.726L42.2214 230.873Z" fill="#412E2E"/>
<path d="M11.1624 232.852H17.2188L20.1002 209.477H11.1614L11.1624 232.852Z" fill="#FFB8B8"/>
<path d="M9.61768 230.873L21.5446 230.872H21.5451C22.5433 230.872 23.5317 231.069 24.4538 231.451C25.376 231.833 26.2139 232.393 26.9198 233.1C27.6256 233.806 28.1854 234.644 28.5674 235.567C28.9494 236.49 29.146 237.479 29.146 238.478V238.725L9.61805 238.726L9.61768 230.873Z" fill="#412E2E"/>
<path d="M12.2369 225.467C11.6191 225.467 11.0239 225.235 10.5696 224.816C10.3258 224.593 10.1294 224.324 9.9922 224.023C9.85504 223.723 9.77997 223.398 9.77146 223.067L7.34265 135.963L41.8291 144.59L52.4695 176.531C53.8417 180.64 54.4356 184.969 54.221 189.296L52.8997 220.258C52.8696 220.893 52.5965 221.491 52.137 221.929C51.6776 222.367 51.0671 222.611 50.4325 222.611H44.6483C44.0513 222.608 43.4752 222.39 43.0256 221.997C42.576 221.604 42.2831 221.062 42.2007 220.471L38.0665 186.293C37.7052 183.627 36.7731 181.07 35.3338 178.797L27.198 165.907C27.1436 165.821 27.0639 165.754 26.9699 165.715C26.8759 165.676 26.7721 165.667 26.6728 165.689C26.5734 165.711 26.4833 165.764 26.4149 165.839C26.3464 165.914 26.3028 166.009 26.2902 166.11L19.9055 223C19.8369 223.577 19.5671 224.111 19.1436 224.509C18.7201 224.906 18.17 225.141 17.5901 225.173L12.3775 225.463C12.3306 225.466 12.2838 225.467 12.2369 225.467Z" fill="#412E2E"/>
<path d="M36.0902 79.5678C42.7911 79.5678 48.2233 74.1321 48.2233 67.427C48.2233 60.7218 42.7911 55.2861 36.0902 55.2861C29.3893 55.2861 23.9572 60.7218 23.9572 67.427C23.9572 74.1321 29.3893 79.5678 36.0902 79.5678Z" fill="#FFB8B8"/>
<path d="M41.6639 148.131C41.4551 148.131 41.2472 148.105 41.0449 148.053L6.82826 139.274C6.21651 139.117 5.68802 138.732 5.35147 138.197C5.01492 137.662 4.89587 137.019 5.01881 136.399L12.8769 94.0411C13.3665 91.5927 14.4426 89.2997 16.0129 87.359C17.5831 85.4184 19.6007 83.8881 21.8922 82.8995C24.125 81.9107 26.5667 81.487 29.0019 81.6659C31.437 81.8448 33.7908 82.6208 35.8553 83.9253C36.3343 84.2244 36.8169 84.5505 37.2892 84.8947C39.1905 86.2981 40.741 88.1233 41.8191 90.227C42.8973 92.3307 43.4736 94.6558 43.5031 97.0198L44.1279 145.625C44.1321 145.952 44.0716 146.276 43.9497 146.58C43.8279 146.883 43.6472 147.159 43.4181 147.392C43.189 147.625 42.916 147.81 42.6149 147.937C42.3138 148.064 41.9906 148.13 41.6639 148.131Z" fill="#C74635"/>
<path d="M10.3488 148.629C9.94067 148.028 9.66917 147.345 9.55345 146.628C9.43774 145.91 9.48064 145.176 9.67911 144.477C9.87758 143.778 10.2268 143.131 10.7022 142.582C11.1776 142.033 11.7675 141.594 12.4305 141.298L10.9086 123.699L18.9736 128.073L19.1824 144.114C19.6064 145.262 19.595 146.525 19.1503 147.665C18.7057 148.805 17.8587 149.741 16.7698 150.298C15.681 150.855 14.4259 150.992 13.2425 150.685C12.0591 150.377 11.0295 149.646 10.3488 148.629Z" fill="#FFB8B8"/>
<path d="M13.2302 138.97C13.0026 138.97 12.776 138.941 12.5555 138.885C12.0813 138.764 11.6487 138.517 11.3033 138.17C10.9579 137.823 10.7126 137.389 10.5934 136.915L6.62995 121.154C5.24484 115.649 5.90513 109.829 8.48799 104.775L16.7915 88.5212C17.3164 86.5751 18.5846 84.9134 20.3227 83.8945C22.0608 82.8756 24.1295 82.5811 26.0826 83.0745C27.0561 83.3205 27.9711 83.7574 28.7746 84.3599C29.578 84.9624 30.2539 85.7186 30.7632 86.5845C31.2829 87.4627 31.6227 88.4357 31.763 89.4467C31.9033 90.4577 31.8412 91.4865 31.5803 92.4732L19.7602 118.922L19.9006 134.757C19.9042 135.316 19.7363 135.862 19.4196 136.323C19.103 136.783 18.6527 137.134 18.1298 137.33L14.1742 138.8C13.8722 138.913 13.5525 138.97 13.2302 138.97Z" fill="#C74635"/>
<path d="M69.8104 142.157C69.0889 142.074 68.3942 141.834 67.7753 141.454C67.1564 141.074 66.6284 140.563 66.2284 139.956C65.8284 139.35 65.5662 138.663 65.4602 137.944C65.3542 137.225 65.407 136.491 65.6149 135.795L51.2922 125.469L59.8663 122.206L72.1528 132.512C73.2986 132.939 74.2481 133.772 74.8212 134.852C75.3944 135.933 75.5515 137.187 75.2628 138.375C74.9741 139.564 74.2595 140.606 73.2546 141.303C72.2497 142 71.0242 142.304 69.8104 142.157Z" fill="#FFB8B8"/>
<path d="M62.3126 134.616C61.8903 134.616 61.4739 134.517 61.0961 134.328L46.573 127.054C41.5004 124.513 37.5224 120.215 35.3788 114.96L28.4839 98.0593C27.3524 96.3915 26.9212 94.3457 27.2833 92.3628C27.6453 90.3799 28.7716 88.6187 30.4193 87.4591C31.2425 86.8798 32.1727 86.4703 33.1557 86.2545C34.1387 86.0386 35.1548 86.0207 36.1448 86.2018C37.1465 86.382 38.1024 86.7593 38.9572 87.3119C39.812 87.8645 40.5488 88.5813 41.1247 89.4209L53.4475 115.639L65.5335 125.863C65.9591 126.224 66.2634 126.708 66.4054 127.248C66.5473 127.789 66.52 128.359 66.3272 128.884L64.8602 132.842C64.6686 133.362 64.3226 133.809 63.8688 134.126C63.4125 134.445 62.8693 134.616 62.3126 134.616Z" fill="#C74635"/>
<path d="M33.5425 79.7544C34.1871 80.0366 35.5073 74.8966 34.9159 73.8685C34.0365 72.3397 34.0885 72.3506 33.5047 71.3391C32.9209 70.3276 32.7902 68.9432 33.5462 68.0531C34.3023 67.1631 36.0518 67.2812 36.3968 68.3971C36.1749 66.2776 38.27 64.5738 40.3453 64.095C42.4207 63.6162 44.6097 63.9135 46.6965 63.4874C49.1183 62.993 51.638 60.9616 50.6718 58.2968C50.5059 57.8531 50.2577 57.4449 49.9401 57.0936C48.8237 55.8376 47.2621 55.3013 45.7352 54.7827C42.5588 53.7039 39.2955 52.6115 35.9432 52.7306C33.181 52.8751 30.5209 53.8222 28.2883 55.456C26.0558 57.0897 24.3476 59.3393 23.3728 61.9294C23.1418 62.5773 22.9628 63.2427 22.8376 63.9192C21.6869 70.1101 25.2797 76.2166 31.1151 78.5741L33.5425 79.7544Z" fill="#412E2E"/>
<path opacity="0.2" d="M19.2164 135.117L19.4916 118.84L28.1084 101.504L21.1924 119.299L19.2164 135.117Z" fill="black"/>
<path d="M97.3554 175.967L60.9783 160.843C60.181 160.514 59.469 160.008 58.8967 159.362C58.3243 158.717 57.9066 157.949 57.6754 157.118C57.4377 156.277 57.3949 155.393 57.5503 154.533C57.7056 153.673 58.055 152.86 58.5718 152.155C67.7591 139.497 73.8395 124.853 76.3213 109.407C76.4557 108.544 76.7851 107.722 77.2846 107.005C77.784 106.288 78.4403 105.695 79.2035 105.27C79.9554 104.847 80.7937 104.602 81.6547 104.552C82.5157 104.503 83.3766 104.65 84.172 104.984L120.549 120.108C121.804 120.633 122.831 121.588 123.448 122.801C124.065 124.013 124.232 125.406 123.918 126.73C119.852 143.285 113.277 159.119 104.423 173.683C103.706 174.84 102.602 175.704 101.308 176.122C100.013 176.54 98.6129 176.485 97.3554 175.967Z" fill="#D2CFCF"/>
<path d="M83.0348 107.723C82.6528 107.563 82.2394 107.492 81.8259 107.515C81.4125 107.539 81.0098 107.657 80.6487 107.859C80.2774 108.067 79.9583 108.356 79.7156 108.705C79.4729 109.055 79.313 109.455 79.248 109.875C76.6921 125.782 70.4299 140.864 60.9682 153.901C60.7162 154.243 60.5457 154.639 60.4695 155.057C60.3934 155.476 60.4136 155.906 60.5288 156.315C60.6399 156.715 60.8407 157.083 61.1156 157.393C61.3906 157.703 61.7326 157.946 62.1156 158.104L98.4926 173.228C99.0957 173.479 99.7682 173.507 100.39 173.309C101.013 173.11 101.544 172.697 101.89 172.142C110.588 157.836 117.046 142.283 121.04 126.022C121.189 125.385 121.106 124.717 120.808 124.135C120.51 123.554 120.015 123.097 119.412 122.847L83.0348 107.723Z" fill="#E7E7E7"/>
<path d="M102.404 141.389L83.3148 133.453C82.5895 133.15 82.0137 132.572 81.7138 131.845C81.4138 131.118 81.4143 130.302 81.715 129.576L82.1594 128.506C82.4617 127.78 83.0393 127.204 83.7656 126.903C84.492 126.603 85.3076 126.604 86.0336 126.905L105.123 134.841C105.848 135.144 106.424 135.722 106.724 136.448C107.024 137.175 107.023 137.991 106.723 138.718L106.278 139.788C105.976 140.514 105.398 141.09 104.672 141.39C103.946 141.69 103.13 141.69 102.404 141.389Z" fill="#C74635"/>
<path d="M96.7888 154.912L77.6996 146.976C76.9742 146.673 76.3985 146.095 76.0985 145.369C75.7986 144.642 75.799 143.826 76.0998 143.099L76.5441 142.029C76.8464 141.303 77.4241 140.727 78.1504 140.427C78.8767 140.127 79.6924 140.127 80.4184 140.428L99.5076 148.364C100.233 148.667 100.809 149.245 101.109 149.972C101.409 150.699 101.408 151.515 101.107 152.241L100.663 153.311C100.361 154.037 99.783 154.613 99.0567 154.914C98.3304 155.214 97.5148 155.213 96.7888 154.912Z" fill="#C74635"/>
<path d="M110.053 122.383C109.767 122.383 109.484 122.327 109.22 122.22L89.9843 114.438C89.4382 114.216 89.0022 113.787 88.7721 113.244C88.5419 112.701 88.5363 112.089 88.7566 111.542L90.238 107.876C90.459 107.329 90.8881 106.892 91.4308 106.662C91.9736 106.432 92.5855 106.426 93.1321 106.648L112.367 114.429C112.913 114.651 113.349 115.08 113.58 115.623C113.81 116.166 113.815 116.778 113.595 117.325L112.114 120.991C111.947 121.402 111.662 121.754 111.295 122.002C110.928 122.25 110.496 122.382 110.053 122.383Z" fill="#C4B0B0"/>
<path d="M69.6535 239H0.493996C0.36298 239 0.237338 238.948 0.144695 238.856C0.052053 238.763 0 238.637 0 238.506C0 238.375 0.052053 238.249 0.144695 238.157C0.237338 238.064 0.36298 238.012 0.493996 238.012H69.6535C69.7845 238.012 69.9101 238.064 70.0028 238.157C70.0954 238.249 70.1475 238.375 70.1475 238.506C70.1475 238.637 70.0954 238.763 70.0028 238.856C69.9101 238.948 69.7845 239 69.6535 239Z" fill="#C4B0B0"/>
</g>
<defs>
<clipPath id="clip0_657_1538">
<rect width="240" height="239" fill="white"/>
</clipPath>
</defs>
</svg>
