<svg width="282" height="175" viewBox="0 0 282 175" fill="none" xmlns="http://www.w3.org/2000/svg">
<g clip-path="url(#clip0_664_3449)">
<path d="M245.055 137.224C244.992 137.144 244.93 137.064 244.868 136.984C244.807 136.904 244.745 136.824 244.684 136.743C244.622 136.663 244.562 136.582 244.501 136.501C244.44 136.42 244.38 136.339 244.32 136.257C244.219 133.912 244.217 131.588 244.315 129.284C244.411 126.997 244.604 124.737 244.895 122.504C245.183 120.289 245.563 118.107 246.038 115.96C246.508 113.83 247.069 111.739 247.719 109.689C247.794 109.452 247.869 109.217 247.946 108.982C248.023 108.748 248.101 108.515 248.181 108.283C248.26 108.051 248.341 107.819 248.423 107.589C248.505 107.358 248.588 107.129 248.673 106.9C249.3 105.188 249.99 103.518 250.743 101.89C251.491 100.273 252.299 98.7005 253.167 97.1731C254.028 95.6563 254.946 94.1863 255.921 92.7631C256.889 91.3505 257.91 89.9872 258.986 88.6733L259.156 88.4671L259.326 88.2622L259.496 88.0582L259.668 87.8555L259.791 87.7099L259.915 87.5649C259.957 87.5167 259.999 87.4688 260.041 87.421C260.083 87.3732 260.126 87.3259 260.169 87.2792L260.272 87.2232L260.373 87.1676L260.474 87.1123L260.575 87.0571L260.581 87.055L260.588 87.052L260.594 87.0489L260.6 87.0466L260.641 87.0243L260.681 87.0018L260.721 86.9793L260.759 86.9568L260.935 86.8624L261.11 86.7695L261.285 86.6769L261.458 86.5833L261.326 86.5168L260.993 86.351L260.995 86.3496C261.024 86.3619 261.052 86.3748 261.08 86.3884C261.108 86.402 261.137 86.4151 261.165 86.4277C261.194 86.4411 261.222 86.4544 261.25 86.4676C261.277 86.4809 261.306 86.4944 261.334 86.5084L261.366 86.5221L261.399 86.5361L261.432 86.5501C261.443 86.5545 261.453 86.5598 261.463 86.5658C261.473 86.5708 261.482 86.5749 261.492 86.5781L261.521 86.5903L261.549 86.6026L261.578 86.6148C262.79 87.1712 264.006 87.7361 265.206 88.3284C266.406 88.9208 267.587 89.5381 268.736 90.2025C269.883 90.8618 270.993 91.581 272.064 92.3571C273.132 93.1293 274.143 93.9778 275.089 94.8961C276.086 95.8724 276.979 96.9511 277.751 98.1145C278.515 99.2574 279.143 100.486 279.623 101.774C280.085 103.001 280.36 104.29 280.439 105.599C280.515 106.857 280.339 108.118 279.919 109.307C279.863 109.462 279.801 109.615 279.736 109.766C279.67 109.917 279.6 110.065 279.526 110.211C279.451 110.357 279.373 110.501 279.29 110.642C279.206 110.783 279.119 110.921 279.028 111.057C278.99 111.114 278.951 111.17 278.911 111.225C278.871 111.281 278.831 111.336 278.79 111.391C278.749 111.445 278.708 111.5 278.666 111.554C278.624 111.608 278.582 111.662 278.539 111.715C277.745 112.715 276.736 113.522 275.587 114.076C274.432 114.629 273.177 114.941 271.897 114.992C270.553 115.049 269.21 114.854 267.937 114.417C266.572 113.95 265.303 113.238 264.194 112.314C263.81 111.997 263.447 111.656 263.105 111.293C262.767 110.934 262.452 110.555 262.161 110.156C261.872 109.761 261.609 109.349 261.372 108.921C261.137 108.496 260.93 108.056 260.752 107.604C260.668 109.007 260.886 110.412 261.39 111.724C261.922 113.104 262.644 114.401 263.537 115.579C264.48 116.833 265.527 118.005 266.665 119.084C267.811 120.185 269.029 121.216 270.231 122.167C271.434 123.117 272.679 124.089 273.885 125.102C275.089 126.098 276.235 127.163 277.318 128.291C278.369 129.38 279.298 130.58 280.089 131.87C280.866 133.144 281.428 134.537 281.752 135.994C282.099 137.581 282.082 139.226 281.701 140.806C281.516 141.574 281.253 142.321 280.915 143.036C280.574 143.756 280.166 144.442 279.696 145.085L279.652 145.144L279.608 145.202L279.563 145.261L279.517 145.319C278.37 146.82 276.93 148.072 275.285 148.999C274.457 149.465 273.584 149.847 272.679 150.138C271.753 150.437 270.8 150.642 269.833 150.751C267.995 150.921 266.141 150.815 264.333 150.436C262.472 150.046 260.663 149.44 258.942 148.63C257.162 147.796 255.461 146.803 253.86 145.664C252.244 144.519 250.714 143.257 249.282 141.887C248.902 141.524 248.528 141.155 248.162 140.778C247.795 140.402 247.435 140.019 247.083 139.63C246.73 139.241 246.384 138.846 246.047 138.445C245.709 138.044 245.379 137.637 245.055 137.224Z" fill="#F2F2F2"/>
<path d="M274.619 110.053C273.482 109.462 272.39 108.791 271.349 108.043C269.271 106.551 267.414 104.772 265.834 102.758C265.05 101.759 264.341 100.704 263.711 99.6012C263.185 98.6697 262.718 97.7059 262.313 96.7157C261.918 95.7497 261.586 94.7589 261.319 93.7498C261.057 92.7642 260.863 91.7621 260.736 90.7503C260.612 89.7592 260.557 88.7606 260.573 87.7619C260.574 87.7055 260.576 87.6496 260.577 87.594C260.578 87.5384 260.579 87.4825 260.581 87.4261C260.582 87.3698 260.584 87.3142 260.587 87.2594L260.596 87.0934C260.548 87.1311 260.5 87.1691 260.453 87.2075L260.31 87.3234L260.169 87.4401L260.028 87.5571L259.937 87.6322L259.846 87.708L259.756 87.7842L259.667 87.8605L259.79 87.7153L259.916 87.5653C259.958 87.5172 260 87.4692 260.042 87.4214C260.084 87.3737 260.127 87.3264 260.17 87.2797L260.272 87.2237L260.374 87.1681L260.473 87.1129L260.574 87.0577L260.58 87.0556L260.587 87.0526L260.593 87.0495L260.599 87.0472L260.64 87.0249L260.68 87.0025L260.72 86.98L260.758 86.9575L260.934 86.8631L261.109 86.7702L261.284 86.6776L261.459 86.5847L261.322 86.5166L260.989 86.3505L260.992 86.3491C261.02 86.3614 261.049 86.3743 261.077 86.3879C261.105 86.4015 261.133 86.4146 261.161 86.4272C261.19 86.4406 261.218 86.4539 261.246 86.4671C261.274 86.4804 261.302 86.4939 261.33 86.5079L261.362 86.5216L261.395 86.5356L261.428 86.5497C261.439 86.554 261.449 86.5592 261.459 86.5652L261.456 86.6182L261.453 86.6677L261.45 86.7171L261.447 86.7671C261.324 88.4494 261.412 90.1404 261.708 91.801C262.012 93.5103 262.511 95.1789 263.196 96.7741C263.903 98.4253 264.787 99.9947 265.833 101.455C266.913 102.965 268.151 104.356 269.525 105.604C270.908 106.843 272.417 107.933 274.027 108.857C274.822 109.314 275.641 109.727 276.48 110.097C277.312 110.462 278.163 110.783 279.029 111.056C278.991 111.113 278.952 111.169 278.912 111.224C278.873 111.28 278.832 111.335 278.792 111.39C278.751 111.444 278.709 111.499 278.668 111.553C278.626 111.607 278.583 111.661 278.541 111.714C278.206 111.603 277.874 111.485 277.543 111.36C277.213 111.235 276.884 111.104 276.556 110.965C276.229 110.826 275.904 110.681 275.581 110.528C275.259 110.376 274.938 110.217 274.619 110.053Z" fill="white"/>
<path d="M252.123 122.626C251.751 122.069 251.4 121.503 251.07 120.926C250.739 120.349 250.431 119.764 250.144 119.171C249.857 118.577 249.592 117.977 249.348 117.369C249.105 116.76 248.885 116.147 248.688 115.528C248.587 115.2 248.494 114.871 248.409 114.54C248.323 114.21 248.246 113.879 248.177 113.547C248.108 113.215 248.047 112.883 247.993 112.55C247.939 112.217 247.894 111.884 247.857 111.552C247.839 111.397 247.822 111.242 247.807 111.086C247.792 110.931 247.779 110.775 247.767 110.62C247.756 110.464 247.746 110.309 247.738 110.154C247.73 109.999 247.723 109.844 247.718 109.689C247.792 109.453 247.868 109.217 247.945 108.983C248.022 108.748 248.1 108.515 248.179 108.282C248.258 108.05 248.339 107.818 248.421 107.588C248.503 107.357 248.587 107.128 248.672 106.899C248.653 107.091 248.637 107.283 248.624 107.475C248.611 107.668 248.601 107.861 248.593 108.055C248.585 108.249 248.58 108.443 248.578 108.638C248.576 108.833 248.576 109.028 248.579 109.223C248.579 109.33 248.58 109.436 248.582 109.543C248.584 109.649 248.587 109.756 248.59 109.862C248.594 109.969 248.599 110.075 248.604 110.182C248.61 110.289 248.616 110.395 248.623 110.502C248.705 111.697 248.892 112.883 249.183 114.046C249.477 115.222 249.861 116.374 250.331 117.492C250.81 118.631 251.363 119.738 251.985 120.806C252.618 121.892 253.31 122.943 254.059 123.953C254.864 125.043 255.715 126.105 256.612 127.138C257.509 128.171 258.44 129.176 259.406 130.152C260.372 131.128 261.366 132.073 262.389 132.988C263.412 133.904 264.452 134.787 265.509 135.639C266.591 136.514 267.695 137.355 268.821 138.163C269.947 138.972 271.092 139.744 272.255 140.482C273.417 141.219 274.597 141.92 275.794 142.585C276.991 143.251 278.202 143.878 279.427 144.467C279.483 144.495 279.534 144.532 279.576 144.578C279.618 144.623 279.652 144.675 279.677 144.731C279.701 144.786 279.715 144.846 279.719 144.906C279.723 144.967 279.715 145.028 279.695 145.086C279.689 145.111 279.68 145.135 279.669 145.159C279.658 145.181 279.645 145.203 279.63 145.222C279.615 145.242 279.598 145.26 279.579 145.277C279.56 145.293 279.54 145.307 279.518 145.318C279.495 145.329 279.471 145.336 279.446 145.341C279.421 145.345 279.396 145.347 279.371 145.345C279.345 145.343 279.319 145.338 279.295 145.331C279.269 145.323 279.244 145.312 279.221 145.299C279.07 145.227 278.919 145.154 278.768 145.08C278.616 145.007 278.466 144.933 278.315 144.859C278.164 144.785 278.014 144.71 277.864 144.635C277.714 144.559 277.564 144.482 277.414 144.405C276.166 143.763 274.935 143.082 273.72 142.363C272.505 141.645 271.309 140.888 270.131 140.094C268.953 139.301 267.797 138.471 266.661 137.606C265.526 136.741 264.415 135.842 263.328 134.908C262.277 134.009 261.241 133.08 260.229 132.119C259.217 131.158 258.23 130.166 257.28 129.143C256.33 128.119 255.418 127.065 254.554 125.978C253.69 124.892 252.877 123.775 252.123 122.626Z" fill="white"/>
<path d="M275.633 33.3249L274.739 33.4412L280.732 10.9149C281.174 9.41077 281.246 7.82197 280.942 6.28397C280.678 5.02729 280.026 3.88567 279.078 3.02112C278.085 2.15669 276.868 1.59108 275.567 1.38955C273.983 1.14393 272.367 1.21642 270.811 1.60281L230.077 10.8922C228.655 11.2376 227.295 11.7982 226.042 12.5546C224.679 13.366 223.412 14.3282 222.264 15.4231C221.083 16.5395 220.022 17.7776 219.101 19.1168C218.2 20.413 217.466 21.8175 216.916 23.2972L174.296 140.684C173.588 142.615 173.128 144.627 172.926 146.674C172.74 148.491 172.828 150.326 173.188 152.116C173.488 153.672 174.115 155.146 175.027 156.441C175.864 157.618 177.043 158.509 178.403 158.991L221.441 173.827C223.353 174.479 225.405 174.602 227.38 174.182C229.492 173.721 231.479 172.805 233.201 171.497C235.136 170.042 236.799 168.257 238.115 166.224C239.573 163.991 240.662 161.537 241.341 158.956L270.195 50.5146L271.1 50.442L275.633 33.3249Z" fill="#41302E"/>
<path d="M272.519 32.0778L271.625 32.1941L277.619 9.66786C278.061 8.1637 278.132 6.5749 277.828 5.0369C277.565 3.78022 276.912 2.6386 275.964 1.77405C274.971 0.909617 273.754 0.344006 272.454 0.142477C270.87 -0.10314 269.253 -0.0306474 267.698 0.355736L226.964 9.6451C225.542 9.99052 224.181 10.5511 222.928 11.3075C221.566 12.119 220.298 13.0811 219.15 14.176C217.969 15.2924 216.909 16.5305 215.987 17.8697C215.087 19.166 214.353 20.5705 213.803 22.0501L171.183 139.437C170.474 141.368 170.014 143.38 169.813 145.427C169.626 147.244 169.714 149.078 170.074 150.869C170.374 152.425 171.001 153.899 171.914 155.194C172.75 156.371 173.929 157.261 175.289 157.744L218.327 172.58C220.239 173.232 222.291 173.355 224.267 172.934C226.379 172.474 228.365 171.558 230.088 170.25C232.022 168.795 233.685 167.01 235.002 164.977C236.459 162.744 237.549 160.29 238.228 157.709L267.081 49.2675L267.987 49.1949L272.519 32.0778Z" fill="#56433D"/>
<path d="M267.337 3.29517L261.35 4.60873C261.415 5.1275 261.363 5.65435 261.199 6.15051C261.012 6.73086 260.742 7.28067 260.396 7.7824C259.617 8.92144 258.578 9.85774 257.365 10.5133C257.22 10.5907 257.075 10.6621 256.931 10.7275C256.786 10.793 256.642 10.8525 256.498 10.9059C256.354 10.9593 256.211 11.0065 256.07 11.0474C255.928 11.0884 255.788 11.1229 255.649 11.1509L232.239 15.8979C231.804 15.999 231.352 15.9938 230.92 15.8829C230.572 15.7895 230.265 15.5825 230.048 15.2949C229.829 14.986 229.706 14.6196 229.693 14.2411C229.675 13.7582 229.751 13.2764 229.917 12.8227C229.959 12.7003 230.006 12.5771 230.059 12.453C230.112 12.3289 230.17 12.2048 230.233 12.0807C230.295 11.956 230.363 11.8319 230.437 11.7084C230.51 11.5849 230.588 11.4616 230.67 11.3383L226.237 12.3108C225.17 12.5615 224.147 12.9759 223.206 13.5392C222.177 14.1459 221.221 14.8677 220.355 15.6906C219.463 16.5313 218.662 17.4648 217.967 18.4754C217.289 19.452 216.739 20.5109 216.328 21.6267L173.788 140.034C173.259 141.489 172.919 143.006 172.777 144.548C172.646 145.909 172.723 147.282 173.007 148.62C173.243 149.776 173.724 150.868 174.419 151.821C175.056 152.685 175.944 153.332 176.962 153.671L220.317 167.776C221.747 168.235 223.274 168.304 224.74 167.975C226.301 167.617 227.767 166.928 229.04 165.954C230.463 164.875 231.689 163.556 232.661 162.057C233.738 160.41 234.546 158.602 235.055 156.701L274.667 10.3232C275 9.20577 275.061 8.02513 274.847 6.87916C274.661 5.94004 274.187 5.08254 273.49 4.42634C272.761 3.77027 271.86 3.33546 270.893 3.17264C269.711 2.974 268.502 3.01567 267.337 3.29517Z" fill="white"/>
<path d="M244.087 59.3739H157.843V30.1079H244.087V59.3739Z" fill="white"/>
<path d="M218.873 69.7031H134.348V110.733H218.873V69.7031Z" fill="white"/>
<path d="M148.079 89.4061C151.456 89.4061 154.193 86.665 154.193 83.2836C154.193 79.9023 151.456 77.1611 148.079 77.1611C144.703 77.1611 141.965 79.9023 141.965 83.2836C141.965 86.665 144.703 89.4061 148.079 89.4061Z" fill="#C74635"/>
<path d="M162.2 79.2017C161.93 79.2017 161.67 79.3092 161.479 79.5005C161.288 79.6919 161.181 79.9514 161.181 80.2221C161.181 80.4927 161.288 80.7522 161.479 80.9436C161.67 81.135 161.93 81.2425 162.2 81.2425H210.238C210.508 81.2418 210.767 81.134 210.957 80.9427C211.148 80.7514 211.255 80.4923 211.255 80.2221C211.255 79.9519 211.148 79.6927 210.957 79.5014C210.767 79.3101 210.508 79.2023 210.238 79.2017H162.2Z" fill="#E6E6E6"/>
<path d="M162.2 85.3242C162.066 85.3238 161.933 85.3498 161.809 85.4007C161.686 85.4516 161.573 85.5265 161.478 85.6211C161.383 85.7157 161.308 85.8281 161.256 85.9518C161.204 86.0756 161.178 86.2084 161.177 86.3425C161.177 86.4766 161.203 86.6094 161.254 86.7334C161.305 86.8574 161.38 86.9701 161.475 87.0651C161.569 87.1601 161.682 87.2355 161.805 87.2869C161.929 87.3384 162.062 87.3649 162.196 87.365H182.871C183.005 87.365 183.137 87.3387 183.261 87.2874C183.385 87.2361 183.497 87.1609 183.592 87.0662C183.686 86.9714 183.761 86.8589 183.813 86.7351C183.864 86.6113 183.89 86.4786 183.89 86.3446C183.89 86.2106 183.864 86.0779 183.813 85.9541C183.761 85.8303 183.686 85.7178 183.592 85.6231C183.497 85.5283 183.385 85.4532 183.261 85.4019C183.137 85.3506 183.005 85.3242 182.871 85.3242H162.2Z" fill="#E6E6E6"/>
<path d="M143.39 95.1123C142.615 95.1123 141.984 95.5701 141.984 96.1327C141.984 96.6953 142.615 97.1531 143.39 97.1531H209.668C210.443 97.1531 211.074 96.6953 211.074 96.1327C211.074 95.5701 210.443 95.1123 209.668 95.1123H143.39Z" fill="#E6E6E6"/>
<path d="M143.39 101.235C142.615 101.235 141.984 101.693 141.984 102.255C141.984 102.818 142.615 103.276 143.39 103.276H194.412C195.187 103.276 195.818 102.818 195.818 102.255C195.818 101.693 195.187 101.235 194.412 101.235H143.39Z" fill="#E6E6E6"/>
<path d="M219.732 111.594H133.488V68.8428H219.732V111.594ZM135.207 109.873H218.013V70.5643H135.207V109.873Z" fill="#E6E6E6"/>
<path d="M172.434 50.6712C175.811 50.6712 178.548 47.9301 178.548 44.5487C178.548 41.1674 175.811 38.4263 172.434 38.4263C169.057 38.4263 166.32 41.1674 166.32 44.5487C166.32 47.9301 169.057 50.6712 172.434 50.6712Z" fill="#C74635"/>
<path d="M186.554 40.4673C186.284 40.4673 186.025 40.5748 185.834 40.7662C185.643 40.9575 185.535 41.2171 185.535 41.4877C185.535 41.7583 185.643 42.0179 185.834 42.2092C186.025 42.4006 186.284 42.5081 186.554 42.5081H234.593C234.863 42.5074 235.121 42.3996 235.312 42.2084C235.502 42.0171 235.609 41.7579 235.609 41.4877C235.609 41.2175 235.502 40.9583 235.312 40.7671C235.121 40.5758 234.863 40.468 234.593 40.4673H186.554Z" fill="#E6E6E6"/>
<path d="M186.554 46.5898C186.421 46.5894 186.288 46.6154 186.164 46.6663C186.04 46.7173 185.927 46.7922 185.832 46.8867C185.737 46.9813 185.662 47.0937 185.61 47.2175C185.559 47.3413 185.532 47.474 185.532 47.6081C185.532 47.7422 185.558 47.8751 185.609 47.9991C185.66 48.1231 185.735 48.2358 185.829 48.3307C185.924 48.4257 186.036 48.5011 186.16 48.5525C186.284 48.604 186.416 48.6306 186.55 48.6307H224.35C224.62 48.6307 224.88 48.5232 225.071 48.3318C225.262 48.1404 225.369 47.8809 225.369 47.6103C225.369 47.3396 225.262 47.0801 225.071 46.8887C224.88 46.6974 224.62 46.5898 224.35 46.5898H186.554Z" fill="#E6E6E6"/>
<path d="M244.087 59.3739H157.843V30.1079H244.087V59.3739ZM159.562 57.6524H242.368V31.8294H159.562V57.6524Z" fill="#E6E6E6"/>
<path d="M74.6272 170.855H78.9746L81.0429 154.062L74.6262 154.063L74.6272 170.855Z" fill="#FFB6B6"/>
<path d="M87.3591 174.897L73.6955 174.898L73.6953 169.612L82.7238 169.611C83.9531 169.611 85.1321 170.1 86.0014 170.971C86.8707 171.841 87.359 173.022 87.3591 174.253L87.3591 174.897Z" fill="#41302E"/>
<path d="M31.1541 165.213L34.9638 167.311L44.8555 153.593L39.2328 150.498L31.1541 165.213Z" fill="#FFB6B6"/>
<path d="M40.3662 174.898L28.3928 168.306L30.9361 163.674L38.8478 168.029C39.925 168.622 40.7229 169.62 41.0658 170.802C41.4088 171.984 41.2687 173.254 40.6765 174.333L40.3662 174.898Z" fill="#41302E"/>
<path d="M74.4238 161.535C74.0364 161.534 73.6624 161.393 73.3715 161.137C73.0806 160.881 72.8927 160.527 72.8428 160.142L67.4058 118.187C67.3817 118.001 67.2998 117.828 67.1715 117.692C67.0433 117.556 66.8754 117.464 66.6918 117.429C66.5082 117.394 66.3183 117.418 66.1492 117.498C65.9801 117.578 65.8405 117.709 65.7503 117.872L43.0907 159.04C42.9038 159.377 42.6025 159.634 42.2418 159.767C41.8811 159.899 41.4849 159.898 41.1252 159.763L36.1861 157.878C35.9875 157.803 35.8059 157.688 35.6522 157.541C35.4984 157.394 35.3756 157.217 35.2908 157.022C35.206 156.827 35.1611 156.617 35.1586 156.404C35.1561 156.191 35.1961 155.98 35.2762 155.783L50.973 117.169C51.0127 117.071 51.0397 116.968 51.0532 116.863C53.1792 100.385 58.5886 92.0054 60.1958 89.8297C60.3132 89.6698 60.3904 89.4839 60.421 89.2878C60.4516 89.0917 60.4347 88.8911 60.3716 88.703L60.1507 88.0392C60.0624 87.7758 60.0443 87.4939 60.0982 87.2213C60.152 86.9487 60.276 86.6949 60.4578 86.4849C66.2491 79.8794 76.3432 83.4839 76.4445 83.521L76.4951 83.5397L76.5267 83.583C87.8452 99.127 83.6604 149.613 82.7066 159.576C82.671 159.951 82.5043 160.3 82.236 160.563C81.9677 160.827 81.6151 160.986 81.2406 161.014L74.5477 161.53C74.5062 161.533 74.4649 161.535 74.4238 161.535Z" fill="#41302E"/>
<path d="M71.3553 44.9561C76.6988 44.9561 81.0306 40.6183 81.0306 35.2673C81.0306 29.9164 76.6988 25.5786 71.3553 25.5786C66.0117 25.5786 61.6799 29.9164 61.6799 35.2673C61.6799 40.6183 66.0117 44.9561 71.3553 44.9561Z" fill="#FFB8B8"/>
<path d="M56.397 96.9184L84.8672 99.5132C82.385 90.8704 80.1109 82.2579 81.9646 73.6766C84.3185 66.0155 84.5373 61.7715 78.3277 58.1635L74.1351 48.7977L66.5471 48.5214L62.8472 47.5059C59.858 52.3187 58.6352 58.0235 59.3888 63.6408C60.9972 75.8561 60.5629 87.1911 56.397 96.9184Z" fill="#C74635"/>
<path d="M60.7184 53.6838L57.8546 40.5218C57.2571 37.4062 57.4071 34.193 58.2921 31.1467C58.3884 30.8346 58.5046 30.5289 58.6399 30.2315C59.4326 28.5015 60.6789 27.0192 62.2462 25.9423C63.8134 24.8654 65.643 24.2342 67.5401 24.116C74.0483 23.6658 75.0038 24.3529 75.2391 24.6918C78.9168 24.5431 81.7685 25.9659 83.0696 28.5989C83.1971 28.8602 83.2657 29.1463 83.2708 29.4371C83.2758 29.7279 83.2172 30.0163 83.0989 30.2819C82.9806 30.5476 82.8056 30.784 82.5862 30.9746C82.3669 31.1651 82.1084 31.3052 81.8291 31.385C80.0115 31.9098 77.4568 32.4927 75.5409 32.3213C71.7004 36.9341 73.2704 45.3857 77.1667 50.4213L77.3199 50.6192L73.4595 51.4115L68.9734 45.1555C68.8846 45.0317 68.7561 44.9422 68.6093 44.9019C68.4625 44.8616 68.3064 44.873 68.167 44.9342C68.0276 44.9953 67.9134 45.1025 67.8434 45.2379C67.7735 45.3733 67.7521 45.5286 67.7828 45.6778L69.1448 52.3036L60.7184 53.6838Z" fill="#41302E"/>
<path d="M269.97 175H0V174.32H270.093L269.97 175Z" fill="#CACACA"/>
<path d="M116.021 89.125L45.6044 138.989L28.7302 115.094L99.1464 65.23L116.021 89.125Z" fill="white"/>
<path d="M52.4999 123.448C55.2568 121.495 55.9113 117.675 53.9617 114.914C52.0121 112.153 48.1967 111.498 45.4397 113.45C42.6827 115.402 42.0282 119.223 43.9778 121.984C45.9274 124.745 49.7429 125.4 52.4999 123.448Z" fill="#C74635"/>
<path d="M58.1455 106.952C57.9248 107.109 57.7752 107.346 57.7295 107.613C57.6838 107.88 57.7458 108.154 57.9019 108.375C58.0579 108.596 58.2952 108.745 58.5616 108.791C58.8279 108.837 59.1015 108.775 59.3222 108.619L98.5446 80.8438C98.7645 80.6872 98.9134 80.4497 98.9587 80.1834C99.004 79.917 98.9419 79.6436 98.7861 79.423C98.6303 79.2024 98.3935 79.0526 98.1277 79.0066C97.8618 78.9606 97.5886 79.022 97.3679 79.1775L58.1455 106.952Z" fill="#E6E6E6"/>
<path d="M61.6754 111.951C61.4548 112.107 61.3049 112.344 61.2588 112.611C61.2128 112.877 61.2742 113.151 61.4297 113.372C61.5851 113.593 61.8219 113.744 62.088 113.79C62.354 113.836 62.6276 113.775 62.8486 113.62L62.8521 113.617L93.7114 91.7647C93.932 91.6084 94.0817 91.3708 94.1274 91.1041C94.1731 90.8373 94.1111 90.5634 93.955 90.3424C93.8778 90.233 93.7797 90.1399 93.6665 90.0684C93.5534 89.9969 93.4272 89.9485 93.2953 89.9258C93.029 89.8801 92.7554 89.9422 92.5347 90.0984L61.6754 111.951Z" fill="#E6E6E6"/>
<path d="M116.021 89.125L45.6044 138.989L28.7302 115.094L99.1464 65.23L116.021 89.125ZM46.0155 136.59L113.624 88.7134L98.7354 67.6296L31.1265 115.506L46.0155 136.59Z" fill="#E6E6E6"/>
<path d="M276.809 80.2718C277.058 80.2622 277.307 80.3047 277.54 80.3966C277.76 80.4851 277.961 80.6183 278.127 80.7879C278.295 80.9585 278.426 81.1617 278.512 81.3849C278.602 81.6216 278.644 81.8743 278.633 82.1276C278.623 82.3874 278.563 82.6429 278.455 82.8796C278.35 83.1119 278.204 83.3232 278.024 83.5032C277.845 83.6824 277.636 83.8273 277.405 83.931C277.17 84.0363 276.918 84.0941 276.661 84.1012C276.411 84.1088 276.162 84.0641 275.93 83.9699C275.711 83.8801 275.512 83.7458 275.347 83.5755C275.181 83.4044 275.051 83.2011 274.967 82.9782C274.878 82.7423 274.837 82.4908 274.848 82.2389C274.859 81.9804 274.919 81.7263 275.026 81.4906C275.13 81.2607 275.275 81.0513 275.453 80.8727C275.63 80.6939 275.839 80.5488 276.068 80.4446C276.301 80.3389 276.553 80.2802 276.809 80.2718Z" fill="#F2F2F2"/>
<path d="M78.8369 104.579L74.2578 79.5124L74.5803 64.0105L64.26 63.6875L66.1951 81.1272L72.868 105.31C72.3142 105.985 71.9748 106.809 71.8937 107.679C71.8125 108.548 71.9934 109.421 72.4129 110.187C72.8324 110.952 73.4713 111.574 74.2471 111.972C75.023 112.37 75.9002 112.526 76.7655 112.42C77.6308 112.314 78.4445 111.951 79.1017 111.377C79.7589 110.804 80.2293 110.046 80.4522 109.202C80.6752 108.358 80.6405 107.467 80.3525 106.643C80.0646 105.819 79.5367 105.1 78.8369 104.579Z" fill="#FFB8B8"/>
<path d="M63.615 65.3019C67.3541 63.8758 71.4863 63.8758 75.2254 65.3019L74.5803 52.3836C74.5803 51.705 74.4469 51.0331 74.1876 50.4062C73.9282 49.7792 73.5481 49.2096 73.069 48.7298C72.5898 48.2499 72.021 47.8693 71.3949 47.6096C70.7688 47.35 70.0978 47.2163 69.4202 47.2163C68.7425 47.2163 68.0715 47.35 67.4455 47.6096C66.8194 47.8693 66.2506 48.2499 65.7714 48.7298C65.2922 49.2096 64.9121 49.7792 64.6528 50.4062C64.3935 51.0331 64.26 51.705 64.26 52.3836L63.615 65.3019Z" fill="#C74635"/>
</g>
<defs>
<clipPath id="clip0_664_3449">
<rect width="282" height="175" fill="white"/>
</clipPath>
</defs>
</svg>
