<svg width="247" height="249" viewBox="0 0 247 249" fill="none" xmlns="http://www.w3.org/2000/svg">
<g clip-path="url(#clip0_664_3306)">
<path d="M22.9436 164.628L27.5061 166.831L38.1726 150.27L31.4383 147.017L22.9436 164.628Z" fill="#FFB6B6"/>
<path d="M20.4851 169.313L34.5159 176.09L34.6016 175.912C35.3006 174.463 35.3958 172.795 34.8661 171.276C34.3363 169.756 33.2251 168.51 31.7768 167.81L30.1523 164.626L24.4318 164.262L23.207 163.67L20.4851 169.313Z" fill="#41332E"/>
<path d="M56.9067 170.801L61.9726 170.801L64.383 151.246L56.9055 151.246L56.9067 170.801Z" fill="#FFB6B6"/>
<path d="M56.7281 176.09L72.308 176.089V175.892C72.3079 174.283 71.6689 172.739 70.5317 171.601C69.3945 170.463 67.8521 169.824 66.2438 169.824H66.2435L63.3976 167.664L58.0878 169.824L56.7278 169.824L56.7281 176.09Z" fill="#41332E"/>
<path d="M61.9276 80.1083L67.7333 120.17L68.2266 129.175L65.1819 157.275L66.4178 159.998L62.9647 162.129H55.9382L55.5653 132.446L50.2963 107.586L49.4812 135.763L48.3532 137.94C44.1513 147.48 38.491 150.603 34.4894 157.734L27.4626 153.925L27.6099 151.085C26.1983 150.37 29.7294 148.279 30.0687 146.733L30.6832 143.964L34.7822 135.468L34.9386 132.476L33.8168 112.125L34.3446 84.7207L43.5617 77.668L61.9276 80.1083Z" fill="#41332E"/>
<path d="M53.0981 23.3125C58.1399 23.3125 62.2271 19.2226 62.2271 14.1775C62.2271 9.13237 58.1399 5.04248 53.0981 5.04248C48.0562 5.04248 43.969 9.13237 43.969 14.1775C43.969 19.2226 48.0562 23.3125 53.0981 23.3125Z" fill="#FFB6B6"/>
<path d="M54.3539 87.5016C42.3189 87.5019 33.2909 82.9661 33.1674 82.9027L33.0604 82.8478L33.0933 82.7322C33.4164 81.5999 33.7225 79.7004 33.1687 79.4235C33.1091 79.4006 33.0562 79.3631 33.0149 79.3144C32.9737 79.2656 32.9454 79.2073 32.9326 79.1447C32.9009 78.9171 33.1286 78.7091 33.4439 78.421C34.0557 77.8618 34.8938 77.096 34.4023 75.8667C33.5358 73.6993 35.9721 62.5926 36.1297 61.8806L35.0891 44.1764C34.8995 40.7986 35.8779 37.4583 37.8599 34.7174C39.8418 31.9764 42.7064 30.0018 45.9721 29.1257L45.9953 29.1195L46.0191 29.1211C46.3575 29.1401 46.7158 27.9902 46.9876 27.1488C47.389 25.9051 47.654 25.1409 48.1062 25.1734C51.6069 25.3992 53.9396 25.547 55.494 25.6436C58.4413 25.8268 58.9577 29.4139 59.0212 29.9866C62.1936 31.9209 64.6744 34.8084 66.1098 38.2371C67.5453 41.6658 67.8619 45.4605 67.0146 49.0799L65.5456 55.4005L64.2475 58.4374L64.6753 64.4288C66.6888 66.1041 66.1118 69.5314 65.9971 70.1105C67.9156 72.0965 66.7375 74.4339 66.4517 74.9288C66.9428 75.5293 67.277 76.2425 67.4243 77.0042C67.5715 77.766 67.5272 78.5525 67.2953 79.2929L69.0623 85.0392L68.9291 85.0857C64.241 86.7053 59.3135 87.522 54.3539 87.5016Z" fill="#56433D"/>
<path d="M110.912 27.5402C110.594 27.129 110.19 26.7926 109.728 26.5546C109.266 26.3166 108.757 26.1829 108.238 26.1628C107.719 26.1427 107.202 26.2368 106.723 26.4385C106.244 26.6401 105.815 26.9443 105.466 27.3298L76.6 27.487L68.3985 31.4518L67.3347 35.9958L80.587 35.4414L105.882 32.5503C106.568 33.0936 107.43 33.3662 108.303 33.3165C109.176 33.2668 110.001 32.8983 110.621 32.2807C111.241 31.6632 111.613 30.8395 111.667 29.9658C111.72 29.0921 111.452 28.229 110.912 27.5402Z" fill="#FFB6B6"/>
<path d="M78.4761 37.0402L67.2398 42.3591L56.8226 37.9955L56.8122 37.9112C56.616 36.3694 56.8865 34.8041 57.5887 33.4178C58.291 32.0314 59.3928 30.8878 60.7516 30.1348C62.9256 28.9223 65.2954 28.1013 67.7532 27.7092C74.6438 26.6835 76.0413 26.2896 76.0546 26.2857L76.2062 26.2417L78.4761 37.0402Z" fill="#56433D"/>
<path d="M45.3573 19.9195C45.2446 19.92 45.1326 19.9019 45.0257 19.866C44.6063 19.682 44.2556 19.3702 44.0239 18.9749C42.4058 16.6463 41.6245 13.5416 41.702 9.74692C41.7348 8.14156 41.9163 6.08901 43.0399 4.4529C43.9847 3.07714 45.8959 1.98535 47.6771 2.53339C47.6568 2.17699 47.7359 1.82195 47.9055 1.50789C48.0751 1.19384 48.3286 0.93311 48.6376 0.754802C49.3202 0.403938 50.0737 0.213469 50.8408 0.197888C52.6499 0.0282255 54.5199 -0.147158 56.3517 0.200172C58.4056 0.589996 60.085 1.64932 60.9592 3.10646L60.9771 3.15224L61.1548 4.01572C61.1786 4.13179 61.2274 4.24132 61.2976 4.33674C61.3678 4.43216 61.4579 4.51122 61.5616 4.56846C61.6653 4.6257 61.7802 4.65977 61.8983 4.66832C62.0164 4.67687 62.135 4.65969 62.2459 4.61798C62.3668 4.5724 62.4976 4.55918 62.6253 4.57963C62.7529 4.60007 62.8731 4.65347 62.9738 4.73456C63.0745 4.81564 63.1524 4.92162 63.1997 5.04201C63.247 5.16241 63.2621 5.29306 63.2436 5.42109L63.194 5.76458L63.7106 5.66785C63.8399 5.64373 63.9732 5.65432 64.0971 5.69855C64.2209 5.74278 64.3308 5.81906 64.4156 5.91963C64.5003 6.02019 64.557 6.14145 64.5797 6.27104C64.6024 6.40063 64.5903 6.53393 64.5448 6.65736L64.3988 7.05233C64.5057 7.05301 64.6114 7.0756 64.7092 7.11871C64.807 7.16181 64.895 7.22452 64.9677 7.30297C65.0722 7.4154 65.1381 7.55834 65.1556 7.71089C65.1731 7.86344 65.1415 8.0176 65.0652 8.15085C64.4879 9.1388 63.6688 9.96346 62.685 10.5472C62.1474 10.8708 61.5595 11.1022 60.9456 11.2317C56.9618 12.0919 52.8543 12.2155 48.8261 11.5963C49.0646 12.3913 49.1564 13.2232 49.097 14.0511C49.062 14.5207 48.8994 14.9717 48.6266 15.3553C48.3538 15.739 47.9813 16.0406 47.5495 16.2276C47.3648 16.2877 47.1757 16.3333 46.9839 16.364C46.8005 16.3926 46.6199 16.4365 46.4439 16.4954C46.1831 16.5912 45.9521 16.7543 45.7743 16.968C45.5965 17.1817 45.4782 17.4386 45.4312 17.7126C45.3843 17.9867 45.4105 18.2684 45.507 18.5291C45.6036 18.7899 45.7672 19.0205 45.9813 19.1978L46.3813 18.7807L46.2512 19.311C46.224 19.4142 46.1755 19.5106 46.1087 19.5938C46.0419 19.677 45.9583 19.7453 45.8635 19.7941C45.7077 19.8772 45.5338 19.9203 45.3573 19.9195Z" fill="#41332E"/>
<path d="M106.49 131.254C135.284 131.254 158.626 108.253 158.626 79.8804C158.626 51.5075 135.284 28.5068 106.49 28.5068C77.6966 28.5068 54.3545 51.5075 54.3545 79.8804C54.3545 108.253 77.6966 131.254 106.49 131.254Z" fill="#E6E6E6"/>
<path d="M149.689 79.8803C149.696 86.0407 148.344 92.1267 145.73 97.7041C145.65 97.8761 145.567 98.0481 145.484 98.2201C141.486 106.414 134.991 113.126 126.935 117.388C126.766 117.477 126.597 117.566 126.428 117.652C120.259 120.816 113.423 122.461 106.49 122.448C104.086 122.448 101.685 122.253 99.3117 121.863C99.1227 121.831 98.9336 121.8 98.7474 121.765C89.8679 120.185 81.7032 115.869 75.3922 109.422C75.2604 109.288 75.1286 109.15 74.994 109.012C68.9497 102.698 65.0156 94.6609 63.736 86.0118C63.7103 85.8226 63.6816 85.6334 63.6587 85.4442C62.4911 76.6502 64.1282 67.7118 68.3366 59.9038C68.4254 59.7347 68.52 59.5656 68.6116 59.3993C71.8531 53.6071 76.3907 48.6447 81.8691 44.9006C82.0266 44.7917 82.1842 44.6856 82.3417 44.5796C87.6353 41.0574 93.638 38.743 99.9248 37.8003C100.114 37.7745 100.303 37.7459 100.492 37.7201C102.48 37.4479 104.484 37.3119 106.49 37.313C112.809 37.3027 119.054 38.6671 124.792 41.3118C124.967 41.3921 125.139 41.4723 125.311 41.5554C130.679 44.1182 135.46 47.7621 139.356 52.2589C139.482 52.4022 139.608 52.5484 139.729 52.6946C144.438 58.2559 147.622 64.946 148.97 72.1093V72.1122C149.007 72.2985 149.039 72.4848 149.07 72.674C149.483 75.0539 149.69 77.4649 149.689 79.8803Z" fill="white"/>
<path d="M110.756 76.6447C111.35 77.3821 111.736 78.2656 111.873 79.2032L132.687 75.2749C131.865 70.8472 129.905 66.7099 127 63.27L110.756 76.6447Z" fill="#C74635"/>
<path d="M133.34 75.6407C133.315 75.4515 133.28 75.2652 133.246 75.0789V75.076C132.407 70.553 130.407 66.3261 127.442 62.8104C127.319 62.6642 127.193 62.518 127.067 62.3775C124.677 59.6528 121.769 57.4312 118.513 55.8419H118.51C118.338 55.7588 118.169 55.6757 117.995 55.5954C113.219 53.4007 107.915 52.6179 102.709 53.3395C102.52 53.3624 102.331 53.3911 102.142 53.4226C98.3697 54.02 94.7653 55.4049 91.5629 57.4873C91.4025 57.5905 91.2421 57.6965 91.0845 57.8055C87.5681 60.1909 84.6615 63.3704 82.5995 67.0871C82.5079 67.2534 82.4162 67.4225 82.3246 67.5945C79.749 72.4998 78.7809 78.0916 79.5573 83.578C79.5803 83.7701 79.6089 83.9593 79.6433 84.1456C80.5104 89.4308 82.9562 94.3294 86.6587 98.1971C86.7876 98.3347 86.9194 98.4723 87.0569 98.607C90.9544 102.538 95.955 105.19 101.394 106.209C101.583 106.246 101.772 106.278 101.961 106.309C107.758 107.272 113.71 106.358 118.952 103.701C119.121 103.615 119.287 103.526 119.456 103.434H119.459C124.414 100.782 128.423 96.6536 130.931 91.6214C131.017 91.4494 131.1 91.2774 131.181 91.1055C133.444 86.2869 134.197 80.8956 133.34 75.6407ZM130.659 90.8675C130.579 91.0423 130.496 91.2143 130.41 91.3835C127.952 96.3009 124.031 100.335 119.186 102.93C119.017 103.019 118.848 103.107 118.679 103.193C113.552 105.794 107.729 106.687 102.059 105.742C101.87 105.713 101.678 105.681 101.492 105.644C96.1763 104.647 91.2893 102.056 87.478 98.2172C87.3405 98.0824 87.2087 97.9448 87.077 97.8072C83.4591 94.0264 81.0659 89.2409 80.2105 84.0768C80.179 83.8905 80.1503 83.7013 80.1246 83.5121C79.3654 78.1441 80.3114 72.6732 82.8287 67.8726C82.9147 67.7034 83.0064 67.5343 83.1009 67.3652C85.1226 63.7233 87.9723 60.6085 91.4197 58.2727C91.5773 58.1638 91.7348 58.0577 91.8952 57.9574C95.0227 55.9274 98.5406 54.5759 102.222 53.9902C102.408 53.9587 102.597 53.93 102.789 53.9071C107.884 53.2009 113.075 53.9678 117.748 56.1171C117.923 56.1945 118.095 56.2776 118.264 56.3608C121.446 57.9119 124.289 60.0809 126.626 62.7416C126.752 62.8849 126.878 63.0311 126.998 63.1773C129.903 66.6171 131.863 70.7544 132.684 75.1821C132.719 75.3684 132.75 75.5547 132.779 75.7468C133.611 80.8856 132.872 86.1561 130.659 90.8675Z" fill="#CCCCCC"/>
<path d="M104.5 75.6036L104.033 75.9361L91.4198 58.2728L91.0846 57.8055L81.8691 44.9006C82.0267 44.7917 82.1843 44.6857 82.3418 44.5796L91.563 57.4874L91.8953 57.9575L104.5 75.6036Z" fill="#CCCCCC"/>
<path d="M102.245 77.8883L101.967 78.3928L82.8288 67.8728L82.3246 67.5947L68.3367 59.9039C68.4255 59.7348 68.52 59.5657 68.6117 59.3994L82.5996 67.0873L83.1009 67.3654L102.245 77.8883Z" fill="#CCCCCC"/>
<path d="M102.002 81.5202L80.2104 84.0771L79.6433 84.1459L63.736 86.012C63.7103 85.8228 63.6816 85.6336 63.6587 85.4444L79.5573 83.5783L80.1245 83.5124L101.936 80.9526L102.002 81.5202Z" fill="#CCCCCC"/>
<path d="M103.408 83.4463L87.4779 98.2173L87.0568 98.6071L75.3921 109.422C75.2603 109.288 75.1285 109.15 74.9939 109.012L86.6586 98.1972L87.0768 97.8074L103.018 83.0249L103.408 83.4463Z" fill="#CCCCCC"/>
<path d="M125.311 41.5557L118.513 55.8422H118.51L118.264 56.3611L108.971 75.8933L108.456 75.6467L117.748 56.1174L117.995 55.5957L124.792 41.312C124.967 41.3923 125.139 41.4725 125.311 41.5557Z" fill="#CCCCCC"/>
<path d="M139.729 52.6945L127.442 62.8103L126.998 63.1772L110.203 77.0052L109.839 76.5637L126.626 62.7415L127.067 62.3775L139.356 52.2588C139.482 52.4021 139.608 52.5483 139.729 52.6945Z" fill="#CCCCCC"/>
<path d="M149.07 72.6742L133.34 75.6409L132.779 75.747L111.254 79.8088L111.148 79.247L132.684 75.1823L133.246 75.0791V75.0763L148.97 72.1123C149.007 72.2986 149.038 72.485 149.07 72.6742Z" fill="#CCCCCC"/>
<path d="M145.73 97.7044C145.65 97.8764 145.567 98.0484 145.484 98.2204L130.931 91.6217L130.41 91.3838L110.756 82.4719L110.994 81.9502L130.659 90.8678L131.181 91.1058L145.73 97.7044Z" fill="#CCCCCC"/>
<path d="M126.935 117.388C126.766 117.477 126.597 117.566 126.428 117.652L118.951 103.701L118.679 103.193L108.461 84.1254L108.965 83.856L119.186 102.93L119.456 103.434H119.458L126.935 117.388Z" fill="#CCCCCC"/>
<path d="M105.66 84.5872L102.059 105.742L101.961 106.309L99.3117 121.863C99.1226 121.831 98.9335 121.8 98.7473 121.766L101.394 106.209L101.492 105.644L105.092 84.4897L105.66 84.5872Z" fill="#CCCCCC"/>
<path d="M105.823 75.2769L105.256 75.3571L102.222 53.9904L102.142 53.4228L99.9248 37.8005C100.114 37.7747 100.303 37.746 100.492 37.7202L102.709 53.3397L102.789 53.9073L105.823 75.2769Z" fill="#CCCCCC"/>
<path d="M106.49 85.2434C109.496 85.2434 111.933 82.8423 111.933 79.8803C111.933 76.9183 109.496 74.5171 106.49 74.5171C103.484 74.5171 101.048 76.9183 101.048 79.8803C101.048 82.8423 103.484 85.2434 106.49 85.2434Z" fill="#56433D"/>
<path d="M218.454 229.809L214.38 233.222L199.283 219.122L205.296 214.084L218.454 229.809Z" fill="#A0616A"/>
<path d="M222.156 233.941L209.628 244.438L209.495 244.28C208.413 242.986 207.888 241.314 208.036 239.633C208.185 237.952 208.995 236.398 210.288 235.315L210.289 235.314L211.123 231.66L216.847 229.82L217.94 228.903L222.156 233.941Z" fill="#41332E"/>
<path d="M182.055 242.825L176.742 242.825L174.214 222.316L182.056 222.317L182.055 242.825Z" fill="#A0616A"/>
<path d="M182.242 248.372L165.902 248.371V248.164C165.902 246.477 166.573 244.858 167.765 243.665C168.958 242.471 170.576 241.801 172.262 241.8L175.247 239.535L180.816 241.801L182.242 241.801L182.242 248.372Z" fill="#41332E"/>
<path d="M195.345 144.684C196.628 146.289 195.987 151.748 195.987 151.748L196.301 185.744C201.756 190.239 205.934 208.903 205.934 208.903L211.143 218.493C210.501 220.419 206.338 227.953 205.054 227.632C204.458 227.483 197.045 220.642 192.115 210.496C186.42 198.776 183.151 183.537 183.151 183.537C183.151 183.537 183.793 227.206 183.793 229.133C183.793 231.059 175.129 230.096 173.203 230.096C171.278 230.096 161.368 151.427 161.368 151.427V146.931L162.972 144.684C162.972 144.684 194.061 143.078 195.345 144.684Z" fill="#41332E"/>
<path d="M126.365 72.0987L122.474 73.9158L126.81 73.0073C126.81 73.0073 129.997 73.1371 129.997 71.8391L135.185 68.9836C135.185 68.9836 139.595 71.3199 140.893 70.022C142.19 68.724 139.855 66.1281 139.855 66.1281C139.855 66.1281 141.418 65.2655 141.285 64.9181C141.152 64.5706 139.077 65.0897 139.077 65.0897C139.077 65.0897 134.148 62.2342 134.407 67.1665L129.219 70.6086C129.219 70.6086 126.624 70.5412 126.365 72.0987Z" fill="#56433D"/>
<path d="M197.128 155.8C190.318 159.181 182.215 160.204 174.582 159.306C168.002 158.531 166.633 151.174 160.526 148.564C162.456 143.015 162.479 135.649 162.153 133.582C161.595 130.052 161.491 105.45 163.535 102.888C166.216 99.5265 170.308 97.731 170.122 93.4348L170.695 94.0238C169.971 92.1165 171.374 89.9334 173.221 89.0707C175.068 88.2079 177.201 88.3174 179.236 88.4444C180.95 88.5517 182.663 88.659 184.377 88.7663C184.152 89.4662 184.098 90.2095 184.218 90.9346C184.339 91.6596 184.63 92.3456 185.068 92.9355C188.105 92.0968 191.309 94.326 192.666 97.1682C194.022 100.013 193.99 103.295 193.928 106.446C193.858 110.092 196.559 135.696 193.292 137.317C194.977 137.741 197.358 146.734 195.921 145.759C196.586 146.226 196.425 150.58 197.128 155.8Z" fill="#C74635"/>
<path d="M130.933 67.8611C131.668 67.6451 132.44 67.5928 133.197 67.708C133.954 67.8232 134.676 68.1029 135.313 68.5276C135.95 68.9523 136.486 69.5115 136.883 70.166C137.281 70.8204 137.53 71.5541 137.614 72.3154L166.508 97.737L161.29 101.205L132.612 78.1859C131.325 78.2415 130.062 77.8227 129.062 77.0088C128.063 76.1948 127.397 75.0423 127.19 73.7696C126.983 72.497 127.25 71.1926 127.94 70.1036C128.629 69.0146 129.695 68.2167 130.933 67.8611Z" fill="#A0616A"/>
<path d="M162.049 89.5363C161.417 89.5726 146.484 78.6696 146.102 79.1753L145.099 84.6213L142.338 88.2737L148.305 94.603L150.01 96.0023L151.106 97.1619C150.723 97.675 153.267 100.425 153.405 101.052C153.472 101.359 153.604 101.649 153.792 101.901C153.98 102.152 154.22 102.361 154.496 102.512L164.205 107.783C165.5 108.745 167.122 109.154 168.718 108.92C170.313 108.686 171.75 107.829 172.715 106.537C173.679 105.244 174.092 103.621 173.863 102.024C173.634 100.428 172.781 98.9867 171.492 98.018L170.06 96.5686L167.866 94.3439L163.761 90.1836C163.539 89.9581 163.272 89.7835 162.976 89.6717C162.681 89.56 162.364 89.5137 162.049 89.5363Z" fill="#C74635"/>
<path d="M178.157 85.5654C183.974 85.5654 188.69 80.8467 188.69 75.0259C188.69 69.205 183.974 64.4863 178.157 64.4863C172.34 64.4863 167.625 69.205 167.625 75.0259C167.625 80.8467 172.34 85.5654 178.157 85.5654Z" fill="#A0616A"/>
<path d="M190.722 71.6881C190.136 69.3623 187.952 67.3333 185.566 67.5686C185.861 65.7768 184.669 63.9726 183.063 63.1282C181.456 62.2837 179.537 62.2476 177.746 62.5416C176.706 62.7303 175.676 62.9711 174.66 63.263C173.799 63.4951 169.757 62.1108 168.901 62.3635C168.169 62.5796 166.408 65.2041 165.852 65.7277C165.296 66.2513 165.002 67.1324 165.373 67.7998C165.739 68.4587 166.578 68.6734 167.329 68.7351C168.08 68.7968 168.887 68.7859 169.511 69.2096C170.312 69.7541 170.539 70.8398 170.507 71.8085C170.474 72.7772 170.252 73.7541 170.433 74.7063C170.614 75.6585 171.384 76.6096 172.35 76.5442C173.073 75.781 174.395 75.83 175.225 76.4757C175.622 76.8229 175.939 77.2517 176.154 77.7329C176.37 78.2141 176.479 78.7362 176.475 79.2636C176.458 80.3169 176.294 81.3627 175.989 82.3708C175.815 83.0668 175.684 83.9104 176.199 84.4095C176.502 84.6516 176.867 84.8041 177.253 84.8499C178.774 85.1731 184.48 84.7347 186.001 85.0579L185.883 84.8255C186.985 82.6953 188.447 80.7665 189.53 78.6267C190.612 76.4869 191.308 74.0138 190.722 71.6881Z" fill="#41332E"/>
<path d="M206.889 158.734C206.145 158.555 205.449 158.216 204.85 157.739C204.251 157.263 203.763 156.66 203.422 155.975C203.081 155.289 202.894 154.537 202.875 153.771C202.855 153.006 203.004 152.245 203.31 151.543L190.893 115.104L197.143 114.694L210.568 148.942C211.712 149.535 212.6 150.528 213.062 151.731C213.524 152.935 213.528 154.266 213.075 155.473C212.621 156.68 211.741 157.679 210.601 158.28C209.461 158.881 208.14 159.042 206.889 158.734Z" fill="#A0616A"/>
<path d="M188.017 119.868C188.584 120.152 196.113 137.045 196.696 136.797L200.275 132.573L204.485 130.78L202.458 122.318L201.675 120.256L201.301 118.704C201.889 118.45 201.049 114.797 201.242 114.185C201.337 113.885 201.366 113.568 201.328 113.256C201.291 112.944 201.186 112.644 201.022 112.376L195.222 102.968C194.578 101.489 193.374 100.326 191.874 99.7344C190.374 99.1425 188.701 99.1701 187.221 99.8109C185.742 100.452 184.576 101.654 183.981 103.153C183.386 104.652 183.409 106.327 184.045 107.809L184.567 109.779L185.363 112.801L186.854 118.454C186.934 118.76 187.08 119.045 187.28 119.289C187.481 119.533 187.732 119.731 188.017 119.868Z" fill="#C74635"/>
<path d="M236.066 242.342L233.132 237.624L232.546 240.32C232.443 240.792 232.34 241.272 232.245 241.748C231.412 241.036 230.525 240.377 229.657 239.745C226.993 237.81 224.331 235.873 221.669 233.934L222.503 238.77C223.017 241.748 223.553 244.786 224.824 247.509C224.965 247.818 225.117 248.122 225.281 248.419H237.664C237.764 248.143 237.833 247.857 237.87 247.566C237.873 247.547 237.874 247.528 237.873 247.509C238.068 245.662 237.048 243.922 236.066 242.342Z" fill="#F0F0F0"/>
<path d="M246.547 248.883L141.609 249C141.489 249 141.373 248.952 141.288 248.867C141.204 248.782 141.156 248.667 141.156 248.547C141.156 248.426 141.204 248.311 141.288 248.226C141.373 248.141 141.489 248.093 141.609 248.093L246.547 247.976C246.606 247.976 246.666 247.988 246.721 248.01C246.776 248.033 246.826 248.066 246.868 248.108C246.91 248.151 246.944 248.201 246.967 248.256C246.99 248.311 247.001 248.37 247.001 248.429C247.001 248.489 246.99 248.548 246.967 248.603C246.944 248.658 246.91 248.708 246.868 248.751C246.826 248.793 246.776 248.826 246.721 248.849C246.666 248.871 246.606 248.883 246.547 248.883Z" fill="#CACACA"/>
<path d="M94.9101 169.809L91.976 165.091L91.3899 167.787C91.2872 168.259 91.1844 168.739 91.0893 169.215C90.2559 168.503 89.3692 167.844 88.5016 167.212C85.8377 165.277 83.1751 163.34 80.5137 161.401L81.3471 166.237C81.8609 169.215 82.3975 172.254 83.6685 174.976C83.8093 175.285 83.9615 175.59 84.1252 175.887H96.5085C96.6081 175.611 96.677 175.325 96.714 175.034C96.7171 175.015 96.7183 174.996 96.7177 174.976C96.9119 173.13 95.8919 171.389 94.9101 169.809Z" fill="#F0F0F0"/>
<path d="M105.391 176.351L0.453025 176.468C0.333077 176.467 0.21817 176.419 0.133476 176.334C0.0487833 176.249 0.0012207 176.134 0.0012207 176.014C0.0012207 175.894 0.0487833 175.779 0.133476 175.694C0.21817 175.609 0.333077 175.561 0.453025 175.561L105.391 175.444C105.451 175.444 105.51 175.455 105.565 175.478C105.62 175.501 105.67 175.534 105.712 175.576C105.754 175.618 105.788 175.668 105.811 175.723C105.834 175.779 105.845 175.838 105.845 175.897C105.845 175.957 105.834 176.016 105.811 176.071C105.788 176.126 105.754 176.176 105.712 176.218C105.67 176.26 105.62 176.294 105.565 176.317C105.51 176.339 105.451 176.351 105.391 176.351Z" fill="#CACACA"/>
<path d="M56.8567 88.8042C56.3626 88.6435 55.9096 88.3764 55.5298 88.0216C55.15 87.6668 54.8525 87.233 54.6584 86.7507C54.4642 86.2684 54.3781 85.7495 54.4061 85.2303C54.4341 84.7111 54.5755 84.2044 54.8204 83.7458L45.2234 56.5033L46.1843 47.4398L50.0997 44.9038L54.052 57.5734L59.8717 82.3753C60.6143 82.838 61.1615 83.5572 61.4096 84.3966C61.6577 85.236 61.5895 86.1373 61.2178 86.9298C60.8462 87.7222 60.197 88.3507 59.3932 88.6962C58.5894 89.0416 57.6869 89.0801 56.8567 88.8042Z" fill="#FFB6B6"/>
<path d="M40.0522 37.9072L49.1289 34.3916L54.3988 51.9698L42.2347 55.827L40.0522 37.9072Z" fill="#56433D"/>
</g>
<defs>
<clipPath id="clip0_664_3306">
<rect width="247" height="249" fill="white"/>
</clipPath>
</defs>
</svg>
