<svg width="172" height="172" viewBox="0 0 172 172" fill="none" xmlns="http://www.w3.org/2000/svg">
<path d="M73.6649 106.346C55.2657 101.009 41.8182 84.0309 41.8182 63.9091V5H130.182V71.2727M41.8182 19.7273H5V49.1818C5 67.6572 18.1883 78.6364 34.4545 78.6364H41.8182M145.156 77.7889C157.734 74.8875 167 64.668 167 49.1818V19.7273H130.182M71.2727 137.545H34.4545V167H119.136M119.136 167C92.702 167 71.2727 145.571 71.2727 119.136C71.2727 92.702 92.702 71.2727 119.136 71.2727C145.571 71.2727 167 92.702 167 119.136C167 145.571 145.571 167 119.136 167ZM144.909 100.727L111.773 133.864L93.3636 115.455M72.787 111.214C63.1547 116.057 56.5455 126.029 56.5455 137.545" stroke="#C74F35" stroke-width="10"/>
</svg>
