<svg width="340" height="330" viewBox="0 0 340 330" fill="none" xmlns="http://www.w3.org/2000/svg">
<path d="M175 249C225.258 249 266 246.353 266 243.088C266 239.822 225.258 237.175 175 237.175C124.742 237.175 84 239.822 84 243.088C84 246.353 124.742 249 175 249Z" fill="#3F3D56"/>
<path d="M170.466 167.985C175.653 167.985 179.858 164.193 179.858 159.515C179.858 154.838 175.653 151.046 170.466 151.046C165.279 151.046 161.075 154.838 161.075 159.515C161.075 164.193 165.279 167.985 170.466 167.985Z" fill="#DE7F49"/>
<path d="M187.063 237.095C187.063 237.095 167.066 245.005 152.898 237.255L153.029 235.018L154.25 214.245L155.404 194.59L156.784 171.101H183.339L184.615 194.59L185.684 214.245L186.812 235.018L187.063 237.095Z" fill="#3F3D56"/>
<path d="M187.063 237.095C187.063 237.095 168.685 245.165 152.898 237.255L153.029 235.018H186.812L187.063 237.095Z" fill="#DE7F49"/>
<path d="M185.684 214.245H154.25L155.404 194.59H184.615L185.684 214.245Z" fill="#DE7F49"/>
<path d="M184.958 168.544H155.165V171.74H184.958V168.544Z" fill="#3F3D56"/>
<path d="M184.958 157.838H155.165V161.033H184.958V157.838Z" fill="#3F3D56"/>
<path d="M159.537 161.034H157.755V169.343H159.537V161.034Z" fill="#3F3D56"/>
<path d="M164.232 161.034H162.451V169.343H164.232V161.034Z" fill="#3F3D56"/>
<path d="M168.928 161.034H167.147V169.343H168.928V161.034Z" fill="#3F3D56"/>
<path d="M173.624 161.034H171.843V169.343H173.624V161.034Z" fill="#3F3D56"/>
<path d="M178.319 161.034H176.538V169.343H178.319V161.034Z" fill="#3F3D56"/>
<path d="M164.232 148.33H162.451V159.276H164.232V148.33Z" fill="#3F3D56"/>
<path d="M168.928 148.33H167.147V159.276H168.928V148.33Z" fill="#3F3D56"/>
<path d="M173.624 148.33H171.843V159.276H173.624V148.33Z" fill="#3F3D56"/>
<path d="M178.319 148.33H176.538V159.276H178.319V148.33Z" fill="#3F3D56"/>
<path d="M183.015 161.034H181.234V169.343H183.015V161.034Z" fill="#3F3D56"/>
<path d="M159.617 149.608H157.836V159.356H159.617V149.608Z" fill="#3F3D56"/>
<path d="M183.096 149.608H181.315V159.356H183.096V149.608Z" fill="#3F3D56"/>
<path d="M185.039 151.446H155.246V141.858L170.142 129.954L185.039 141.858V151.446Z" fill="#3F3D56"/>
<path opacity="0.3" d="M170.466 184.075C184.3 184.075 195.515 173.008 195.515 159.356C195.515 145.704 184.3 134.636 170.466 134.636C156.632 134.636 145.418 145.704 145.418 159.356C145.418 173.008 156.632 184.075 170.466 184.075Z" fill="#DE7F49"/>
<path opacity="0.3" d="M170.466 200.183C193.27 200.183 211.756 181.94 211.756 159.436C211.756 136.932 193.27 118.688 170.466 118.688C147.662 118.688 129.176 136.932 129.176 159.436C129.176 181.94 147.662 200.183 170.466 200.183Z" fill="#DE7F49"/>
<path opacity="0.3" d="M172.259 278.368C236.141 278.368 287.928 227.478 287.928 164.702C287.928 101.925 236.141 51.0351 172.259 51.0351C108.377 51.0351 56.5903 101.925 56.5903 164.702C56.5903 227.478 108.377 278.368 172.259 278.368Z" fill="#DE7F49" fill-opacity="0.4"/>
<path opacity="0.3" d="M170.066 329.491C263.619 329.491 339.458 254.738 339.458 162.526C339.458 70.3141 263.619 -4.4386 170.066 -4.4386C76.5139 -4.4386 0.674683 70.3141 0.674683 162.526C0.674683 254.738 76.5139 329.491 170.066 329.491Z" fill="#DE7F49" fill-opacity="0.2"/>
<path d="M92.3242 235.695C93.3076 239.282 96.6759 241.504 96.6759 241.504C96.6759 241.504 98.4498 237.909 97.4664 234.322C96.483 230.735 93.1147 228.513 93.1147 228.513C93.1147 228.513 91.3408 232.107 92.3242 235.695Z" fill="#8985A8"/>
<path d="M93.7692 234.924C96.4676 237.516 96.7972 241.501 96.7972 241.501C96.7972 241.501 92.7518 241.283 90.0534 238.691C87.355 236.098 87.0254 232.113 87.0254 232.113C87.0254 232.113 91.0708 232.331 93.7692 234.924Z" fill="#3F3D56"/>
<path d="M135.29 230.529C133.84 235.818 128.875 239.093 128.875 239.093C128.875 239.093 126.259 233.794 127.709 228.505C129.159 223.217 134.124 219.941 134.124 219.941C134.124 219.941 136.74 225.241 135.29 230.529Z" fill="#8985A8"/>
<path d="M122.102 230.529C123.551 235.818 128.517 239.093 128.517 239.093C128.517 239.093 131.132 233.794 129.682 228.505C128.233 223.217 123.267 219.941 123.267 219.941C123.267 219.941 120.652 225.241 122.102 230.529Z" fill="#8985A8"/>
<path d="M124.232 229.393C128.21 233.214 128.696 239.089 128.696 239.089C128.696 239.089 122.732 238.767 118.754 234.946C114.776 231.124 114.29 225.25 114.29 225.25C114.29 225.25 120.254 225.571 124.232 229.393Z" fill="#3F3D56"/>
<path d="M133.16 229.393C129.182 233.214 128.696 239.089 128.696 239.089C128.696 239.089 134.659 238.767 138.638 234.946C142.616 231.124 143.101 225.25 143.101 225.25C143.101 225.25 137.138 225.571 133.16 229.393Z" fill="#3F3D56"/>
<path d="M231.18 183.48C229.903 181.351 227.378 181.252 227.378 181.252C227.378 181.252 224.916 180.942 223.338 184.184C221.866 187.206 219.835 190.124 223.011 190.831L223.584 189.069L223.939 190.962C224.392 190.994 224.845 191.002 225.298 190.985C228.699 190.877 231.938 191.017 231.834 189.812C231.695 188.211 232.408 185.529 231.18 183.48Z" fill="#2E2E41"/>
<path d="M227.632 189.534C229.453 189.534 230.928 188.078 230.928 186.281C230.928 184.485 229.453 183.028 227.632 183.028C225.811 183.028 224.336 184.485 224.336 186.281C224.336 188.078 225.811 189.534 227.632 189.534Z" fill="#A0616A"/>
<path d="M226.284 188.401C226.284 188.401 227.782 191.851 225.784 192.541L227.782 199.047L231.178 198.85L232.077 196.681L231.877 193.428L231.578 191.259C231.578 191.259 229.48 191.752 229.68 188.105L226.284 188.401Z" fill="#A0616A"/>
<path d="M225.484 192.442C225.484 192.442 222.188 192.146 222.488 194.512C222.787 196.878 223.087 197.371 223.087 197.371L223.387 200.92L221.589 202.004H219.891C219.891 202.004 214.696 203.187 217.293 204.469C219.891 205.75 220.79 203.483 220.79 203.483C220.79 203.483 225.584 203.483 225.884 202.694C226.184 201.906 225.484 192.442 225.484 192.442Z" fill="#A0616A"/>
<path d="M231.877 191.456C231.877 191.456 234.974 190.372 235.174 192.738C235.373 195.104 235.373 195.301 235.373 195.301L235.973 198.652C235.973 198.652 237.171 201.61 237.171 202.497C237.171 203.384 238.07 206.144 238.07 206.144C238.07 206.144 239.269 209.989 237.971 209.89C236.672 209.792 236.472 205.75 236.472 205.75L233.775 200.427L232.976 197.174L231.877 191.456Z" fill="#A0616A"/>
<path d="M225.984 192.048H225.185L225.085 196.188C225.085 196.188 223.786 197.962 225.384 199.54L225.784 202.103L233.076 201.807L233.575 199.145C233.575 199.145 234.574 196.977 233.176 195.005L231.877 190.964H231.178C231.178 190.964 232.798 196.856 229.38 196.977C226.583 197.075 225.984 192.048 225.984 192.048Z" fill="#D0CDE1"/>
<path d="M226.184 201.61L225.584 203.581C225.584 203.581 213.098 238.28 216.894 239.167C220.69 240.055 225.984 241.238 226.483 240.35C226.983 239.463 229.58 213.538 229.58 213.538C229.58 213.538 229.18 240.646 230.479 240.646C231.777 240.646 240.368 240.843 240.867 239.562C241.367 238.28 236.372 203.976 233.475 203.187L232.676 201.413L226.184 201.61Z" fill="#2E2E41"/>
<path d="M233.376 200.624L225.484 200.92C225.484 200.92 225.124 203.581 225.484 203.581C225.584 203.581 233.775 204.271 233.675 203.088C233.575 201.906 233.376 200.624 233.376 200.624Z" fill="#3F3D56"/>
<path d="M227.687 183.065C228.695 183.065 229.513 182.258 229.513 181.263C229.513 180.268 228.695 179.461 227.687 179.461C226.678 179.461 225.86 180.268 225.86 181.263C225.86 182.258 226.678 183.065 227.687 183.065Z" fill="#2E2E41"/>
<path d="M225.668 180.789C225.668 180.344 225.835 179.914 226.137 179.583C226.439 179.252 226.854 179.043 227.302 178.997C227.048 178.97 226.79 178.996 226.546 179.074C226.303 179.152 226.078 179.28 225.888 179.449C225.697 179.618 225.545 179.824 225.441 180.055C225.337 180.286 225.283 180.536 225.283 180.789C225.283 181.041 225.337 181.291 225.441 181.522C225.545 181.753 225.697 181.96 225.888 182.129C226.078 182.298 226.303 182.425 226.546 182.503C226.79 182.581 227.048 182.608 227.302 182.581C226.854 182.534 226.439 182.325 226.137 181.994C225.835 181.663 225.668 181.234 225.668 180.789Z" fill="#2E2E41"/>
<path d="M230.616 183.275L228.12 181.985L224.674 182.513L223.961 185.62L225.736 185.553L226.232 184.411V185.534L227.051 185.503L227.526 183.685L227.823 185.62L230.734 185.562L230.616 183.275Z" fill="#2E2E41"/>
<path d="M216.574 194.352L215.664 194.624L219.793 208.089L220.702 207.817L216.574 194.352Z" fill="#3F3D56"/>
<path d="M219.275 191.402C219.574 192.376 219.468 193.427 218.981 194.324C218.495 195.221 217.667 195.89 216.68 196.185C215.693 196.479 214.628 196.375 213.719 195.895C212.81 195.415 212.132 194.598 211.833 193.624C211.211 191.596 213.241 184.97 213.241 184.97C213.241 184.97 218.654 189.374 219.275 191.402Z" fill="#DE7F49"/>
<path opacity="0.1" d="M218.142 192.553C218.242 192.882 218.276 193.226 218.242 193.568C218.208 193.909 218.106 194.24 217.942 194.543C217.778 194.845 217.555 195.113 217.286 195.33C217.017 195.548 216.708 195.711 216.375 195.81C216.042 195.909 215.693 195.943 215.347 195.909C215.001 195.875 214.666 195.774 214.359 195.613C214.053 195.451 213.782 195.231 213.561 194.966C213.341 194.7 213.176 194.395 213.075 194.066C212.652 192.686 214.034 188.175 214.034 188.175C214.034 188.175 217.718 191.173 218.142 192.553Z" fill="black"/>
</svg>
