<svg width="182" height="131" viewBox="0 0 182 131" fill="none" xmlns="http://www.w3.org/2000/svg">
<path d="M91 131C141.258 131 182 128.353 182 125.088C182 121.822 141.258 119.175 91 119.175C40.7421 119.175 0 121.822 0 125.088C0 128.353 40.7421 131 91 131Z" fill="#3F3D56"/>
<path d="M86.4662 49.9845C91.653 49.9845 95.8577 46.1928 95.8577 41.5155C95.8577 36.8381 91.653 33.0464 86.4662 33.0464C81.2794 33.0464 77.0747 36.8381 77.0747 41.5155C77.0747 46.1928 81.2794 49.9845 86.4662 49.9845Z" fill="#DE7F49"/>
<path d="M103.063 119.095C103.063 119.095 83.0658 127.005 68.8977 119.255L69.0288 117.018L70.2497 96.2449L71.4042 76.5902L72.7838 53.1005H99.339L100.615 76.5902L101.684 96.2449L102.812 117.018L103.063 119.095Z" fill="#3F3D56"/>
<path d="M103.063 119.095C103.063 119.095 84.6851 127.165 68.8977 119.255L69.0288 117.018H102.812L103.063 119.095Z" fill="#DE7F49"/>
<path d="M101.684 96.2449H70.2497L71.4042 76.5902H100.615L101.684 96.2449Z" fill="#DE7F49"/>
<path d="M100.958 50.5438H71.1646V53.7397H100.958V50.5438Z" fill="#3F3D56"/>
<path d="M100.958 39.8376H71.1646V43.0335H100.958V39.8376Z" fill="#3F3D56"/>
<path d="M75.5365 43.0335H73.7553V51.3428H75.5365V43.0335Z" fill="#3F3D56"/>
<path d="M80.2322 43.0335H78.4511V51.3428H80.2322V43.0335Z" fill="#3F3D56"/>
<path d="M84.9279 43.0335H83.1468V51.3428H84.9279V43.0335Z" fill="#3F3D56"/>
<path d="M89.6237 43.0335H87.8425V51.3428H89.6237V43.0335Z" fill="#3F3D56"/>
<path d="M94.3194 43.0335H92.5383V51.3428H94.3194V43.0335Z" fill="#3F3D56"/>
<path d="M80.2322 30.3299H78.4511V41.2758H80.2322V30.3299Z" fill="#3F3D56"/>
<path d="M84.9279 30.3299H83.1468V41.2758H84.9279V30.3299Z" fill="#3F3D56"/>
<path d="M89.6237 30.3299H87.8425V41.2758H89.6237V30.3299Z" fill="#3F3D56"/>
<path d="M94.3194 30.3299H92.5383V41.2758H94.3194V30.3299Z" fill="#3F3D56"/>
<path d="M99.0151 43.0335H97.234V51.3428H99.0151V43.0335Z" fill="#3F3D56"/>
<path d="M75.6174 31.6082H73.8363V41.3557H75.6174V31.6082Z" fill="#3F3D56"/>
<path d="M99.0961 31.6082H97.3149V41.3557H99.0961V31.6082Z" fill="#3F3D56"/>
<path d="M101.039 33.4459H71.2455V23.8583L86.1423 11.9536L101.039 23.8583V33.4459Z" fill="#3F3D56"/>
<path opacity="0.3" d="M86.4662 66.075C100.3 66.075 111.515 55.0078 111.515 41.3557C111.515 27.7036 100.3 16.6364 86.4662 16.6364C72.6323 16.6364 61.4177 27.7036 61.4177 41.3557C61.4177 55.0078 72.6323 66.075 86.4662 66.075Z" fill="#DE7F49"/>
<path opacity="0.3" d="M86.4662 82.1831C109.27 82.1831 127.756 63.9399 127.756 41.4357C127.756 18.9315 109.27 0.688263 86.4662 0.688263C63.6623 0.688263 45.1761 18.9315 45.1761 41.4357C45.1761 63.9399 63.6623 82.1831 86.4662 82.1831Z" fill="#DE7F49"/>
<path d="M8.32419 117.695C9.30756 121.282 12.6759 123.504 12.6759 123.504C12.6759 123.504 14.4498 119.909 13.4664 116.322C12.483 112.735 9.11473 110.513 9.11473 110.513C9.11473 110.513 7.34081 114.107 8.32419 117.695Z" fill="#8985A8"/>
<path d="M9.76917 116.924C12.4676 119.516 12.7972 123.501 12.7972 123.501C12.7972 123.501 8.75178 123.283 6.05338 120.691C3.35498 118.098 3.02539 114.113 3.02539 114.113C3.02539 114.113 7.07077 114.331 9.76917 116.924Z" fill="#3F3D56"/>
<path d="M51.2899 112.529C49.8402 117.818 44.8746 121.093 44.8746 121.093C44.8746 121.093 42.2595 115.794 43.7092 110.505C45.1589 105.217 50.1245 101.941 50.1245 101.941C50.1245 101.941 52.7396 107.241 51.2899 112.529Z" fill="#8985A8"/>
<path d="M38.1016 112.529C39.5513 117.818 44.5169 121.093 44.5169 121.093C44.5169 121.093 47.132 115.794 45.6823 110.505C44.2326 105.217 39.267 101.941 39.267 101.941C39.267 101.941 36.6519 107.241 38.1016 112.529Z" fill="#8985A8"/>
<path d="M40.2318 111.393C44.2099 115.214 44.6957 121.089 44.6957 121.089C44.6957 121.089 38.732 120.767 34.754 116.946C30.776 113.124 30.2901 107.25 30.2901 107.25C30.2901 107.25 36.2538 107.571 40.2318 111.393Z" fill="#3F3D56"/>
<path d="M49.1596 111.393C45.1816 115.214 44.6957 121.089 44.6957 121.089C44.6957 121.089 50.6595 120.767 54.6375 116.946C58.6155 113.124 59.1014 107.25 59.1014 107.25C59.1014 107.25 53.1377 107.571 49.1596 111.393Z" fill="#3F3D56"/>
<path d="M147.18 65.4802C145.903 63.3514 143.378 63.2522 143.378 63.2522C143.378 63.2522 140.916 62.9416 139.338 66.1838C137.866 69.2058 135.835 72.1235 139.011 72.831L139.584 71.0691L139.939 72.9621C140.392 72.9942 140.845 73.0019 141.298 72.985C144.699 72.8767 147.938 73.0167 147.834 71.8124C147.695 70.2114 148.408 67.5285 147.18 65.4802Z" fill="#2E2E41"/>
<path d="M143.632 71.5342C145.453 71.5342 146.928 70.0777 146.928 68.2811C146.928 66.4845 145.453 65.0281 143.632 65.0281C141.811 65.0281 140.336 66.4845 140.336 68.2811C140.336 70.0777 141.811 71.5342 143.632 71.5342Z" fill="#A0616A"/>
<path d="M142.283 70.4005C142.283 70.4005 143.782 73.8507 141.784 74.5407L143.782 81.0468L147.178 80.8496L148.077 78.681L147.877 75.4279L147.578 73.2593C147.578 73.2593 145.48 73.7521 145.68 70.1048L142.283 70.4005Z" fill="#A0616A"/>
<path d="M141.484 74.4422C141.484 74.4422 138.188 74.1464 138.488 76.5123C138.787 78.8781 139.087 79.371 139.087 79.371L139.387 82.9198L137.589 84.0041H135.891C135.891 84.0041 130.696 85.187 133.293 86.4685C135.891 87.75 136.79 85.4828 136.79 85.4828C136.79 85.4828 141.584 85.4828 141.884 84.6941C142.184 83.9055 141.484 74.4422 141.484 74.4422Z" fill="#A0616A"/>
<path d="M147.877 73.4564C147.877 73.4564 150.974 72.3721 151.174 74.7379C151.373 77.1037 151.373 77.3009 151.373 77.3009L151.973 80.6525C151.973 80.6525 153.171 83.6098 153.171 84.497C153.171 85.3842 154.07 88.1443 154.07 88.1443C154.07 88.1443 155.269 91.9888 153.971 91.8902C152.672 91.7917 152.472 87.75 152.472 87.75L149.775 82.4269L148.976 79.1738L147.877 73.4564Z" fill="#A0616A"/>
<path d="M141.984 74.0479H141.185L141.085 78.1881C141.085 78.1881 139.786 79.9625 141.384 81.5397L141.784 84.1027L149.076 83.807L149.575 81.1454C149.575 81.1454 150.574 78.9767 149.176 77.0052L147.877 72.9635H147.178C147.178 72.9635 148.798 78.8563 145.38 78.9767C142.583 79.0753 141.984 74.0479 141.984 74.0479Z" fill="#D0CDE1"/>
<path d="M142.184 83.6098L141.584 85.5813C141.584 85.5813 129.098 120.28 132.894 121.167C136.69 122.055 141.984 123.238 142.483 122.35C142.983 121.463 145.58 95.5376 145.58 95.5376C145.58 95.5376 145.18 122.646 146.479 122.646C147.777 122.646 156.368 122.843 156.867 121.562C157.367 120.28 152.372 85.9756 149.476 85.187L148.676 83.4126L142.184 83.6098Z" fill="#2E2E41"/>
<path d="M149.376 82.624L141.484 82.9198C141.484 82.9198 141.124 85.5813 141.484 85.5813C141.584 85.5813 149.775 86.2714 149.675 85.0884C149.575 83.9055 149.376 82.624 149.376 82.624Z" fill="#3F3D56"/>
<path d="M143.687 65.0653C144.695 65.0653 145.513 64.2584 145.513 63.263C145.513 62.2677 144.695 61.4608 143.687 61.4608C142.678 61.4608 141.861 62.2677 141.861 63.263C141.861 64.2584 142.678 65.0653 143.687 65.0653Z" fill="#2E2E41"/>
<path d="M141.668 62.7887C141.668 62.3436 141.835 61.9142 142.137 61.5833C142.439 61.2525 142.854 61.0435 143.302 60.9966C143.048 60.9698 142.79 60.9962 142.546 61.0741C142.303 61.152 142.078 61.2795 141.888 61.4485C141.697 61.6176 141.545 61.8242 141.441 62.0551C141.337 62.286 141.283 62.5359 141.283 62.7887C141.283 63.0415 141.337 63.2914 141.441 63.5223C141.545 63.7532 141.697 63.9599 141.888 64.1289C142.078 64.2979 142.303 64.4255 142.546 64.5033C142.79 64.5812 143.048 64.6076 143.302 64.5808C142.854 64.534 142.439 64.3249 142.137 63.9941C141.835 63.6632 141.668 63.2338 141.668 62.7887Z" fill="#2E2E41"/>
<path d="M146.616 65.2751L144.12 63.985L140.674 64.5128L139.961 67.6204L141.736 67.5529L142.232 66.4112V67.5341L143.051 67.5031L143.526 65.6854L143.823 67.6204L146.734 67.5617L146.616 65.2751Z" fill="#2E2E41"/>
<path d="M132.574 76.352L131.664 76.6236L135.793 90.0886L136.702 89.817L132.574 76.352Z" fill="#3F3D56"/>
<path d="M135.276 73.402C135.574 74.3758 135.468 75.4268 134.981 76.3236C134.495 77.2205 133.667 77.8899 132.68 78.1846C131.693 78.4792 130.628 78.3751 129.719 77.895C128.81 77.4149 128.132 76.5981 127.833 75.6244C127.211 73.5963 129.241 66.9702 129.241 66.9702C129.241 66.9702 134.654 71.3738 135.276 73.402Z" fill="#DE7F49"/>
<path opacity="0.1" d="M134.142 74.5534C134.242 74.8817 134.276 75.2264 134.242 75.5677C134.208 75.909 134.106 76.2403 133.942 76.5427C133.778 76.8451 133.555 77.1127 133.286 77.3301C133.017 77.5475 132.708 77.7105 132.375 77.8099C132.042 77.9092 131.693 77.9429 131.347 77.9091C131.001 77.8752 130.666 77.7745 130.359 77.6126C130.053 77.4507 129.782 77.2308 129.561 76.9655C129.341 76.7002 129.176 76.3947 129.075 76.0664C128.652 74.6857 130.034 70.1748 130.034 70.1748C130.034 70.1748 133.718 73.1727 134.142 74.5534Z" fill="black"/>
</svg>
