<svg width="232" height="228" viewBox="0 0 232 228" fill="none" xmlns="http://www.w3.org/2000/svg">
<path d="M119 198C169.258 198 210 195.353 210 192.088C210 188.822 169.258 186.175 119 186.175C68.7421 186.175 28 188.822 28 192.088C28 195.353 68.7421 198 119 198Z" fill="#3F3D56"/>
<path d="M114.466 116.985C119.653 116.985 123.858 113.193 123.858 108.515C123.858 103.838 119.653 100.046 114.466 100.046C109.279 100.046 105.075 103.838 105.075 108.515C105.075 113.193 109.279 116.985 114.466 116.985Z" fill="#DE7F49"/>
<path d="M131.063 186.095C131.063 186.095 111.066 194.005 96.8977 186.255L97.0288 184.018L98.2497 163.245L99.4042 143.59L100.784 120.101H127.339L128.615 143.59L129.684 163.245L130.812 184.018L131.063 186.095Z" fill="#3F3D56"/>
<path d="M131.063 186.095C131.063 186.095 112.685 194.165 96.8977 186.255L97.0288 184.018H130.812L131.063 186.095Z" fill="#DE7F49"/>
<path d="M129.684 163.245H98.2497L99.4042 143.59H128.615L129.684 163.245Z" fill="#DE7F49"/>
<path d="M128.958 117.544H99.1646V120.74H128.958V117.544Z" fill="#3F3D56"/>
<path d="M128.958 106.838H99.1646V110.033H128.958V106.838Z" fill="#3F3D56"/>
<path d="M103.536 110.034H101.755V118.343H103.536V110.034Z" fill="#3F3D56"/>
<path d="M108.232 110.034H106.451V118.343H108.232V110.034Z" fill="#3F3D56"/>
<path d="M112.928 110.034H111.147V118.343H112.928V110.034Z" fill="#3F3D56"/>
<path d="M117.624 110.034H115.843V118.343H117.624V110.034Z" fill="#3F3D56"/>
<path d="M122.319 110.034H120.538V118.343H122.319V110.034Z" fill="#3F3D56"/>
<path d="M108.232 97.3299H106.451V108.276H108.232V97.3299Z" fill="#3F3D56"/>
<path d="M112.928 97.3299H111.147V108.276H112.928V97.3299Z" fill="#3F3D56"/>
<path d="M117.624 97.3299H115.843V108.276H117.624V97.3299Z" fill="#3F3D56"/>
<path d="M122.319 97.3299H120.538V108.276H122.319V97.3299Z" fill="#3F3D56"/>
<path d="M127.015 110.034H125.234V118.343H127.015V110.034Z" fill="#3F3D56"/>
<path d="M103.617 98.6082H101.836V108.356H103.617V98.6082Z" fill="#3F3D56"/>
<path d="M127.096 98.6082H125.315V108.356H127.096V98.6082Z" fill="#3F3D56"/>
<path d="M129.039 100.446H99.2455V90.8583L114.142 78.9536L129.039 90.8583V100.446Z" fill="#3F3D56"/>
<path opacity="0.3" d="M114.466 133.075C128.3 133.075 139.515 122.008 139.515 108.356C139.515 94.7036 128.3 83.6364 114.466 83.6364C100.632 83.6364 89.4177 94.7036 89.4177 108.356C89.4177 122.008 100.632 133.075 114.466 133.075Z" fill="#DE7F49"/>
<path opacity="0.3" d="M114.466 149.183C137.27 149.183 155.756 130.94 155.756 108.436C155.756 85.9315 137.27 67.6883 114.466 67.6883C91.6623 67.6883 73.1761 85.9315 73.1761 108.436C73.1761 130.94 91.6623 149.183 114.466 149.183Z" fill="#DE7F49"/>
<path opacity="0.3" d="M116.259 227.368C180.141 227.368 231.928 176.478 231.928 113.702C231.928 50.9254 180.141 0.0350952 116.259 0.0350952C52.377 0.0350952 0.590363 50.9254 0.590363 113.702C0.590363 176.478 52.377 227.368 116.259 227.368Z" fill="#DE7F49" fill-opacity="0.4"/>
<path d="M36.3242 184.695C37.3075 188.282 40.6758 190.504 40.6758 190.504C40.6758 190.504 42.4498 186.909 41.4664 183.322C40.483 179.735 37.1147 177.513 37.1147 177.513C37.1147 177.513 35.3408 181.107 36.3242 184.695Z" fill="#8985A8"/>
<path d="M37.7692 183.924C40.4676 186.516 40.7972 190.501 40.7972 190.501C40.7972 190.501 36.7518 190.283 34.0534 187.691C31.355 185.098 31.0254 181.113 31.0254 181.113C31.0254 181.113 35.0708 181.331 37.7692 183.924Z" fill="#3F3D56"/>
<path d="M79.2899 179.529C77.8402 184.818 72.8746 188.093 72.8746 188.093C72.8746 188.093 70.2595 182.794 71.7092 177.505C73.1589 172.217 78.1245 168.941 78.1245 168.941C78.1245 168.941 80.7396 174.241 79.2899 179.529Z" fill="#8985A8"/>
<path d="M66.1016 179.529C67.5513 184.818 72.5169 188.093 72.5169 188.093C72.5169 188.093 75.132 182.794 73.6823 177.505C72.2326 172.217 67.267 168.941 67.267 168.941C67.267 168.941 64.6519 174.241 66.1016 179.529Z" fill="#8985A8"/>
<path d="M68.2318 178.393C72.2099 182.214 72.6957 188.089 72.6957 188.089C72.6957 188.089 66.732 187.767 62.754 183.946C58.776 180.124 58.2901 174.25 58.2901 174.25C58.2901 174.25 64.2538 174.571 68.2318 178.393Z" fill="#3F3D56"/>
<path d="M77.1596 178.393C73.1816 182.214 72.6957 188.089 72.6957 188.089C72.6957 188.089 78.6595 187.767 82.6375 183.946C86.6155 180.124 87.1014 174.25 87.1014 174.25C87.1014 174.25 81.1377 174.571 77.1596 178.393Z" fill="#3F3D56"/>
<path d="M175.18 132.48C173.903 130.351 171.378 130.252 171.378 130.252C171.378 130.252 168.916 129.942 167.338 133.184C165.866 136.206 163.835 139.124 167.011 139.831L167.584 138.069L167.939 139.962C168.392 139.994 168.845 140.002 169.298 139.985C172.699 139.877 175.938 140.017 175.834 138.812C175.695 137.211 176.408 134.529 175.18 132.48Z" fill="#2E2E41"/>
<path d="M171.632 138.534C173.453 138.534 174.928 137.078 174.928 135.281C174.928 133.485 173.453 132.028 171.632 132.028C169.811 132.028 168.336 133.485 168.336 135.281C168.336 137.078 169.811 138.534 171.632 138.534Z" fill="#A0616A"/>
<path d="M170.283 137.401C170.283 137.401 171.782 140.851 169.784 141.541L171.782 148.047L175.178 147.85L176.077 145.681L175.877 142.428L175.578 140.259C175.578 140.259 173.48 140.752 173.68 137.105L170.283 137.401Z" fill="#A0616A"/>
<path d="M169.484 141.442C169.484 141.442 166.188 141.146 166.488 143.512C166.787 145.878 167.087 146.371 167.087 146.371L167.387 149.92L165.589 151.004H163.891C163.891 151.004 158.696 152.187 161.293 153.469C163.891 154.75 164.79 152.483 164.79 152.483C164.79 152.483 169.584 152.483 169.884 151.694C170.184 150.906 169.484 141.442 169.484 141.442Z" fill="#A0616A"/>
<path d="M175.877 140.456C175.877 140.456 178.974 139.372 179.174 141.738C179.373 144.104 179.373 144.301 179.373 144.301L179.973 147.652C179.973 147.652 181.171 150.61 181.171 151.497C181.171 152.384 182.07 155.144 182.07 155.144C182.07 155.144 183.269 158.989 181.971 158.89C180.672 158.792 180.472 154.75 180.472 154.75L177.775 149.427L176.976 146.174L175.877 140.456Z" fill="#A0616A"/>
<path d="M169.984 141.048H169.185L169.085 145.188C169.085 145.188 167.786 146.962 169.384 148.54L169.784 151.103L177.076 150.807L177.575 148.145C177.575 148.145 178.574 145.977 177.176 144.005L175.877 139.964H175.178C175.178 139.964 176.798 145.856 173.38 145.977C170.583 146.075 169.984 141.048 169.984 141.048Z" fill="#D0CDE1"/>
<path d="M170.184 150.61L169.584 152.581C169.584 152.581 157.098 187.28 160.894 188.167C164.69 189.055 169.984 190.238 170.483 189.35C170.983 188.463 173.58 162.538 173.58 162.538C173.58 162.538 173.18 189.646 174.479 189.646C175.777 189.646 184.368 189.843 184.867 188.562C185.367 187.28 180.372 152.976 177.475 152.187L176.676 150.413L170.184 150.61Z" fill="#2E2E41"/>
<path d="M177.376 149.624L169.484 149.92C169.484 149.92 169.124 152.581 169.484 152.581C169.584 152.581 177.775 153.271 177.675 152.088C177.575 150.906 177.376 149.624 177.376 149.624Z" fill="#3F3D56"/>
<path d="M171.687 132.065C172.695 132.065 173.513 131.258 173.513 130.263C173.513 129.268 172.695 128.461 171.687 128.461C170.678 128.461 169.861 129.268 169.861 130.263C169.861 131.258 170.678 132.065 171.687 132.065Z" fill="#2E2E41"/>
<path d="M169.668 129.789C169.668 129.344 169.835 128.914 170.137 128.583C170.439 128.252 170.854 128.043 171.302 127.997C171.048 127.97 170.79 127.996 170.546 128.074C170.303 128.152 170.078 128.28 169.888 128.449C169.697 128.618 169.545 128.824 169.441 129.055C169.337 129.286 169.283 129.536 169.283 129.789C169.283 130.041 169.337 130.291 169.441 130.522C169.545 130.753 169.697 130.96 169.888 131.129C170.078 131.298 170.303 131.425 170.546 131.503C170.79 131.581 171.048 131.608 171.302 131.581C170.854 131.534 170.439 131.325 170.137 130.994C169.835 130.663 169.668 130.234 169.668 129.789Z" fill="#2E2E41"/>
<path d="M174.616 132.275L172.12 130.985L168.674 131.513L167.961 134.62L169.736 134.553L170.232 133.411V134.534L171.051 134.503L171.526 132.685L171.823 134.62L174.734 134.562L174.616 132.275Z" fill="#2E2E41"/>
<path d="M160.574 143.352L159.664 143.624L163.793 157.089L164.702 156.817L160.574 143.352Z" fill="#3F3D56"/>
<path d="M163.276 140.402C163.574 141.376 163.468 142.427 162.981 143.324C162.495 144.221 161.667 144.89 160.68 145.185C159.693 145.479 158.628 145.375 157.719 144.895C156.81 144.415 156.132 143.598 155.833 142.624C155.211 140.596 157.241 133.97 157.241 133.97C157.241 133.97 162.654 138.374 163.276 140.402Z" fill="#DE7F49"/>
<path opacity="0.1" d="M162.142 141.553C162.242 141.882 162.276 142.226 162.242 142.568C162.208 142.909 162.106 143.24 161.942 143.543C161.778 143.845 161.555 144.113 161.286 144.33C161.017 144.548 160.708 144.711 160.375 144.81C160.042 144.909 159.693 144.943 159.347 144.909C159.001 144.875 158.666 144.774 158.359 144.613C158.053 144.451 157.782 144.231 157.561 143.966C157.341 143.7 157.176 143.395 157.075 143.066C156.652 141.686 158.034 137.175 158.034 137.175C158.034 137.175 161.718 140.173 162.142 141.553Z" fill="black"/>
</svg>
