<svg width="182" height="124" viewBox="0 0 182 124" fill="none" xmlns="http://www.w3.org/2000/svg">
<path d="M91 124C141.258 124 182 121.353 182 118.088C182 114.822 141.258 112.175 91 112.175C40.7421 112.175 0 114.822 0 118.088C0 121.353 40.7421 124 91 124Z" fill="#3F3D56"/>
<path d="M86.4662 42.9845C91.6529 42.9845 95.8576 39.1928 95.8576 34.5155C95.8576 29.8381 91.6529 26.0464 86.4662 26.0464C81.2794 26.0464 77.0747 29.8381 77.0747 34.5155C77.0747 39.1928 81.2794 42.9845 86.4662 42.9845Z" fill="#DE7F49"/>
<path d="M103.063 112.095C103.063 112.095 83.0659 120.005 68.8977 112.255L69.0289 110.018L70.2498 89.2449L71.4043 69.5902L72.7838 46.1005H99.339L100.615 69.5902L101.684 89.2449L102.812 110.018L103.063 112.095Z" fill="#3F3D56"/>
<path d="M103.063 112.095C103.063 112.095 84.6851 120.165 68.8977 112.255L69.0289 110.018H102.812L103.063 112.095Z" fill="#DE7F49"/>
<path d="M101.684 89.2449H70.2498L71.4043 69.5902H100.615L101.684 89.2449Z" fill="#DE7F49"/>
<path d="M100.958 43.5438H71.1646V46.7397H100.958V43.5438Z" fill="#3F3D56"/>
<path d="M100.958 32.8376H71.1646V36.0335H100.958V32.8376Z" fill="#3F3D56"/>
<path d="M75.5365 36.0335H73.7554V44.3428H75.5365V36.0335Z" fill="#3F3D56"/>
<path d="M80.2322 36.0335H78.451V44.3428H80.2322V36.0335Z" fill="#3F3D56"/>
<path d="M84.9279 36.0335H83.1468V44.3428H84.9279V36.0335Z" fill="#3F3D56"/>
<path d="M89.6237 36.0335H87.8425V44.3428H89.6237V36.0335Z" fill="#3F3D56"/>
<path d="M94.3194 36.0335H92.5383V44.3428H94.3194V36.0335Z" fill="#3F3D56"/>
<path d="M80.2322 23.3299H78.451V34.2758H80.2322V23.3299Z" fill="#3F3D56"/>
<path d="M84.9279 23.3299H83.1468V34.2758H84.9279V23.3299Z" fill="#3F3D56"/>
<path d="M89.6237 23.3299H87.8425V34.2758H89.6237V23.3299Z" fill="#3F3D56"/>
<path d="M94.3194 23.3299H92.5383V34.2758H94.3194V23.3299Z" fill="#3F3D56"/>
<path d="M99.0151 36.0335H97.234V44.3428H99.0151V36.0335Z" fill="#3F3D56"/>
<path d="M75.6174 24.6082H73.8363V34.3557H75.6174V24.6082Z" fill="#3F3D56"/>
<path d="M99.0961 24.6082H97.3149V34.3557H99.0961V24.6082Z" fill="#3F3D56"/>
<path d="M101.039 26.4459H71.2455V16.8583L86.1423 4.95361L101.039 16.8583V26.4459Z" fill="#3F3D56"/>
<path opacity="0.3" d="M86.4662 59.075C100.3 59.075 111.515 48.0078 111.515 34.3557C111.515 20.7036 100.3 9.63635 86.4662 9.63635C72.6323 9.63635 61.4177 20.7036 61.4177 34.3557C61.4177 48.0078 72.6323 59.075 86.4662 59.075Z" fill="#DE7F49"/>
<path d="M8.32419 110.695C9.30756 114.282 12.6759 116.504 12.6759 116.504C12.6759 116.504 14.4498 112.909 13.4664 109.322C12.483 105.735 9.11473 103.513 9.11473 103.513C9.11473 103.513 7.34081 107.107 8.32419 110.695Z" fill="#8985A8"/>
<path d="M9.76917 109.924C12.4676 112.516 12.7972 116.501 12.7972 116.501C12.7972 116.501 8.75178 116.283 6.05338 113.691C3.35498 111.098 3.02539 107.113 3.02539 107.113C3.02539 107.113 7.07077 107.331 9.76917 109.924Z" fill="#3F3D56"/>
<path d="M51.2899 105.529C49.8402 110.818 44.8746 114.093 44.8746 114.093C44.8746 114.093 42.2594 108.794 43.7092 103.505C45.1589 98.2168 50.1244 94.9415 50.1244 94.9415C50.1244 94.9415 52.7396 100.241 51.2899 105.529Z" fill="#8985A8"/>
<path d="M38.1016 105.529C39.5513 110.818 44.5169 114.093 44.5169 114.093C44.5169 114.093 47.132 108.794 45.6823 103.505C44.2326 98.2168 39.267 94.9415 39.267 94.9415C39.267 94.9415 36.6519 100.241 38.1016 105.529Z" fill="#8985A8"/>
<path d="M40.2318 104.393C44.2098 108.214 44.6957 114.089 44.6957 114.089C44.6957 114.089 38.732 113.767 34.7539 109.946C30.7759 106.124 30.29 100.25 30.29 100.25C30.29 100.25 36.2538 100.571 40.2318 104.393Z" fill="#3F3D56"/>
<path d="M49.1596 104.393C45.1816 108.214 44.6957 114.089 44.6957 114.089C44.6957 114.089 50.6595 113.767 54.6375 109.946C58.6155 106.124 59.1014 100.25 59.1014 100.25C59.1014 100.25 53.1377 100.571 49.1596 104.393Z" fill="#3F3D56"/>
<path d="M147.18 58.4802C145.903 56.3514 143.378 56.2522 143.378 56.2522C143.378 56.2522 140.916 55.9416 139.338 59.1838C137.866 62.2058 135.835 65.1235 139.011 65.831L139.584 64.0691L139.939 65.9621C140.392 65.9942 140.845 66.0019 141.298 65.985C144.699 65.8767 147.938 66.0167 147.834 64.8124C147.695 63.2114 148.408 60.5285 147.18 58.4802Z" fill="#2E2E41"/>
<path d="M143.632 64.5342C145.453 64.5342 146.928 63.0777 146.928 61.2811C146.928 59.4845 145.453 58.0281 143.632 58.0281C141.811 58.0281 140.336 59.4845 140.336 61.2811C140.336 63.0777 141.811 64.5342 143.632 64.5342Z" fill="#A0616A"/>
<path d="M142.284 63.4005C142.284 63.4005 143.782 66.8507 141.784 67.5407L143.782 74.0468L147.178 73.8496L148.077 71.681L147.877 68.4279L147.578 66.2593C147.578 66.2593 145.48 66.7521 145.68 63.1048L142.284 63.4005Z" fill="#A0616A"/>
<path d="M141.484 67.4422C141.484 67.4422 138.188 67.1464 138.488 69.5123C138.787 71.8781 139.087 72.371 139.087 72.371L139.387 75.9198L137.589 77.0041H135.891C135.891 77.0041 130.696 78.187 133.293 79.4685C135.891 80.75 136.79 78.4828 136.79 78.4828C136.79 78.4828 141.584 78.4828 141.884 77.6941C142.184 76.9055 141.484 67.4422 141.484 67.4422Z" fill="#A0616A"/>
<path d="M147.877 66.4564C147.877 66.4564 150.974 65.3721 151.174 67.7379C151.373 70.1037 151.373 70.3009 151.373 70.3009L151.973 73.6525C151.973 73.6525 153.171 76.6098 153.171 77.497C153.171 78.3842 154.07 81.1443 154.07 81.1443C154.07 81.1443 155.269 84.9888 153.971 84.8902C152.672 84.7917 152.472 80.75 152.472 80.75L149.775 75.4269L148.976 72.1738L147.877 66.4564Z" fill="#A0616A"/>
<path d="M141.984 67.0479H141.185L141.085 71.1881C141.085 71.1881 139.786 72.9625 141.384 74.5397L141.784 77.1027L149.076 76.807L149.575 74.1454C149.575 74.1454 150.574 71.9767 149.176 70.0052L147.877 65.9635H147.178C147.178 65.9635 148.798 71.8563 145.38 71.9767C142.583 72.0753 141.984 67.0479 141.984 67.0479Z" fill="#D0CDE1"/>
<path d="M142.184 76.6098L141.584 78.5813C141.584 78.5813 129.098 113.28 132.894 114.167C136.69 115.055 141.984 116.238 142.483 115.35C142.983 114.463 145.58 88.5376 145.58 88.5376C145.58 88.5376 145.18 115.646 146.479 115.646C147.777 115.646 156.368 115.843 156.867 114.562C157.367 113.28 152.372 78.9756 149.475 78.187L148.676 76.4126L142.184 76.6098Z" fill="#2E2E41"/>
<path d="M149.376 75.624L141.484 75.9198C141.484 75.9198 141.124 78.5813 141.484 78.5813C141.584 78.5813 149.775 79.2714 149.675 78.0884C149.575 76.9055 149.376 75.624 149.376 75.624Z" fill="#3F3D56"/>
<path d="M143.687 58.0653C144.695 58.0653 145.513 57.2584 145.513 56.263C145.513 55.2677 144.695 54.4608 143.687 54.4608C142.678 54.4608 141.86 55.2677 141.86 56.263C141.86 57.2584 142.678 58.0653 143.687 58.0653Z" fill="#2E2E41"/>
<path d="M141.668 55.7887C141.668 55.3436 141.835 54.9142 142.137 54.5833C142.439 54.2525 142.854 54.0435 143.302 53.9966C143.048 53.9698 142.79 53.9962 142.546 54.0741C142.303 54.152 142.078 54.2795 141.888 54.4485C141.697 54.6176 141.545 54.8242 141.441 55.0551C141.337 55.286 141.283 55.5359 141.283 55.7887C141.283 56.0415 141.337 56.2914 141.441 56.5223C141.545 56.7532 141.697 56.9599 141.888 57.1289C142.078 57.2979 142.303 57.4255 142.546 57.5033C142.79 57.5812 143.048 57.6076 143.302 57.5808C142.854 57.534 142.439 57.3249 142.137 56.9941C141.835 56.6632 141.668 56.2338 141.668 55.7887Z" fill="#2E2E41"/>
<path d="M146.616 58.2751L144.12 56.985L140.674 57.5128L139.961 60.6204L141.736 60.5529L142.232 59.4112V60.5341L143.051 60.5031L143.526 58.6854L143.823 60.6204L146.734 60.5617L146.616 58.2751Z" fill="#2E2E41"/>
<path d="M132.574 69.352L131.664 69.6236L135.793 83.0886L136.702 82.817L132.574 69.352Z" fill="#3F3D56"/>
<path d="M135.275 66.402C135.574 67.3758 135.468 68.4268 134.981 69.3236C134.495 70.2205 133.667 70.8899 132.68 71.1846C131.693 71.4792 130.628 71.3751 129.719 70.895C128.81 70.4149 128.132 69.5981 127.833 68.6244C127.211 66.5963 129.241 59.9702 129.241 59.9702C129.241 59.9702 134.654 64.3738 135.275 66.402Z" fill="#DE7F49"/>
<path opacity="0.1" d="M134.142 67.5534C134.242 67.8817 134.276 68.2264 134.242 68.5677C134.208 68.909 134.106 69.2403 133.942 69.5427C133.778 69.8451 133.555 70.1127 133.286 70.3301C133.017 70.5475 132.708 70.7105 132.375 70.8099C132.042 70.9092 131.693 70.9429 131.347 70.9091C131.001 70.8752 130.666 70.7745 130.359 70.6126C130.053 70.4507 129.782 70.2308 129.561 69.9655C129.341 69.7002 129.176 69.3947 129.075 69.0664C128.652 67.6857 130.034 63.1748 130.034 63.1748C130.034 63.1748 133.718 66.1727 134.142 67.5534Z" fill="black"/>
</svg>
