<svg width="24" height="24" viewBox="0 0 24 24" fill="none" xmlns="http://www.w3.org/2000/svg">
<path d="M10.3249 14.7631C7.82621 14.0382 6 11.7326 6 9V1H18V10M6 3H1V7C1 9.509 2.791 11 5 11H6M20.0336 10.8849C21.7417 10.4909 23 9.10306 23 7V3H18M10 19H5V23H16.5M16.5 23C12.9101 23 10 20.0899 10 16.5C10 12.9101 12.9101 10 16.5 10C20.0899 10 23 12.9101 23 16.5C23 20.0899 20.0899 23 16.5 23ZM20 14L15.5 18.5L13 16M10.2056 15.4241C8.89755 16.0817 8 17.4361 8 19" stroke="#B53131" stroke-width="2"/>
</svg>
