<svg width="23" height="23" viewBox="0 0 23 23" fill="none" xmlns="http://www.w3.org/2000/svg">
<path d="M19.465 7.49473L13.2432 2.6554C12.6972 2.23062 12.0251 2 11.3333 2C10.6416 2 9.96951 2.23062 9.4235 2.6554L3.2005 7.49473C2.82652 7.78556 2.52394 8.15801 2.31588 8.58364C2.10782 9.00926 1.99978 9.47681 2 9.95056V18.3506C2 18.9694 2.24583 19.5629 2.68342 20.0005C3.121 20.4381 3.7145 20.6839 4.33333 20.6839H18.3333C18.9522 20.6839 19.5457 20.4381 19.9833 20.0005C20.4208 19.5629 20.6667 18.9694 20.6667 18.3506V9.95056C20.6667 8.9904 20.2233 8.0839 19.465 7.49473Z" stroke="black" stroke-width="3" stroke-linecap="round" stroke-linejoin="round"/>
</svg>
