<svg width="24" height="21" viewBox="0 0 24 21" fill="none" xmlns="http://www.w3.org/2000/svg">
<path d="M23.9632 18.1817L22.8204 13.8476L19.2208 0.833939C19.143 0.546876 18.9526 0.3018 18.6913 0.15238C18.43 0.00295963 18.1191 -0.0386264 17.8267 0.0367288L13.4043 1.15956C13.2988 1.04463 13.1702 0.95239 13.0266 0.888625C12.8831 0.82486 12.7276 0.79095 12.5701 0.789026H1.14274C0.839664 0.789026 0.549004 0.907324 0.3347 1.1179C0.120395 1.32847 0 1.61406 0 1.91186V19.8772C0 20.175 0.120395 20.4606 0.3347 20.6711C0.549004 20.8817 0.839664 21 1.14274 21H12.5701C12.8732 21 13.1638 20.8817 13.3781 20.6711C13.5924 20.4606 13.7128 20.175 13.7128 19.8772V10.8945L16.2269 20.1242C16.2938 20.3691 16.4432 20.5846 16.6507 20.7355C16.8582 20.8864 17.1116 20.9638 17.3696 20.9551C17.4683 20.9661 17.568 20.9661 17.6667 20.9551L23.1861 19.5066C23.332 19.4683 23.4688 19.4019 23.5884 19.3113C23.7081 19.2208 23.8083 19.1078 23.8832 18.9789C24.0037 18.7305 24.032 18.4485 23.9632 18.1817ZM5.6794 18.7992H2.25119V16.5536H5.6794V18.7992ZM5.6794 14.3079H2.25119V7.57093H5.6794V14.3079ZM5.6794 5.32527H2.25119V3.0796H5.6794V5.32527ZM11.3931 18.7992H7.96487V16.5536H11.3931V18.7992ZM11.3931 14.3079H7.96487V7.57093H11.3931V14.3079ZM11.3931 5.32527H7.96487V3.0796H11.3931V5.32527ZM13.9642 3.37154L17.2782 2.49573L17.8724 4.6628L14.5585 5.5386L13.9642 3.37154ZM16.9239 14.2181L15.1527 7.70567L18.4666 6.82986L20.2379 13.3423L16.9239 14.2181ZM18.0667 18.5522L17.4724 16.3852L20.7864 15.5094L21.3806 17.6764L18.0667 18.5522Z" fill="black" fill-opacity="0.9"/>
</svg>
