<svg width="18" height="22" viewBox="0 0 17 21" fill="none" xmlns="http://www.w3.org/2000/svg">
<path d="M9.5625 12.6H5.3125C5.03071 12.6 4.76046 12.7106 4.5612 12.9075C4.36194 13.1045 4.25 13.3715 4.25 13.65C4.25 13.9285 4.36194 14.1955 4.5612 14.3925C4.76046 14.5894 5.03071 14.7 5.3125 14.7H9.5625C9.84429 14.7 10.1145 14.5894 10.3138 14.3925C10.5131 14.1955 10.625 13.9285 10.625 13.65C10.625 13.3715 10.5131 13.1045 10.3138 12.9075C10.1145 12.7106 9.84429 12.6 9.5625 12.6ZM13.8125 2.1H12.5587C12.3395 1.48727 11.9339 0.956548 11.3975 0.580585C10.8611 0.204622 10.2201 0.00182649 9.5625 0H7.4375C6.77987 0.00182649 6.13891 0.204622 5.60249 0.580585C5.06607 0.956548 4.66046 1.48727 4.44125 2.1H3.1875C2.34212 2.1 1.53137 2.43187 0.933597 3.02261C0.335825 3.61335 0 4.41457 0 5.25V17.85C0 18.6854 0.335825 19.4866 0.933597 20.0774C1.53137 20.6681 2.34212 21 3.1875 21H13.8125C14.6579 21 15.4686 20.6681 16.0664 20.0774C16.6642 19.4866 17 18.6854 17 17.85V5.25C17 4.41457 16.6642 3.61335 16.0664 3.02261C15.4686 2.43187 14.6579 2.1 13.8125 2.1ZM6.375 3.15C6.375 2.87152 6.48694 2.60445 6.6862 2.40754C6.88546 2.21062 7.15571 2.1 7.4375 2.1H9.5625C9.84429 2.1 10.1145 2.21062 10.3138 2.40754C10.5131 2.60445 10.625 2.87152 10.625 3.15V4.2H6.375V3.15ZM14.875 17.85C14.875 18.1285 14.7631 18.3955 14.5638 18.5925C14.3645 18.7894 14.0943 18.9 13.8125 18.9H3.1875C2.90571 18.9 2.63546 18.7894 2.4362 18.5925C2.23694 18.3955 2.125 18.1285 2.125 17.85V5.25C2.125 4.97152 2.23694 4.70445 2.4362 4.50754C2.63546 4.31062 2.90571 4.2 3.1875 4.2H4.25V5.25C4.25 5.52848 4.36194 5.79555 4.5612 5.99246C4.76046 6.18937 5.03071 6.3 5.3125 6.3H11.6875C11.9693 6.3 12.2395 6.18937 12.4388 5.99246C12.6381 5.79555 12.75 5.52848 12.75 5.25V4.2H13.8125C14.0943 4.2 14.3645 4.31062 14.5638 4.50754C14.7631 4.70445 14.875 4.97152 14.875 5.25V17.85ZM11.6875 8.4H5.3125C5.03071 8.4 4.76046 8.51062 4.5612 8.70754C4.36194 8.90445 4.25 9.17152 4.25 9.45C4.25 9.72848 4.36194 9.99555 4.5612 10.1925C4.76046 10.3894 5.03071 10.5 5.3125 10.5H11.6875C11.9693 10.5 12.2395 10.3894 12.4388 10.1925C12.6381 9.99555 12.75 9.72848 12.75 9.45C12.75 9.17152 12.6381 8.90445 12.4388 8.70754C12.2395 8.51062 11.9693 8.4 11.6875 8.4Z" fill="black" fill-opacity="0.9"/>
</svg>
