<svg width="28" height="28" viewBox="0 0 28 28" fill="none" xmlns="http://www.w3.org/2000/svg">
<path d="M22.6767 16.4946C22.0138 18.2756 22.0535 20.4037 23.3974 21.7473L25.2074 23.5569C25.6633 24.0127 25.6633 24.7518 25.2075 25.2076V25.2076C24.7517 25.6635 24.0126 25.6634 23.5568 25.2075L21.7472 23.3975C20.4036 22.0536 18.2755 22.0139 16.4945 22.6768C15.3314 23.1097 14.0921 23.3352 12.8333 23.3334C7.03725 23.3334 2.33325 18.6294 2.33325 12.8334C2.33325 7.03737 7.03725 2.33337 12.8333 2.33337C18.6293 2.33337 23.3333 7.03737 23.3333 12.8334C23.335 14.0923 23.1096 15.3315 22.6767 16.4946ZM18.6958 18.5209C20.1764 16.9982 21.0033 14.9572 20.9999 12.8334C20.9999 8.32071 17.3448 4.66671 12.8333 4.66671C8.32059 4.66671 4.66659 8.32071 4.66659 12.8334C4.66659 17.3449 8.32059 21 12.8333 21C14.9571 21.0034 16.9981 20.1765 18.5208 18.6959L18.6958 18.5209Z" fill="#C74F35"/>
</svg>
